<?xml version="1.0" encoding="UTF-8"?>
<svg version="1.1" viewBox="0 0 492.96 490.13" xmlns="http://www.w3.org/2000/svg">
<path d="m246.48 0c68.06 0 129.68 27.43 174.28 71.779 44.606 44.35 72.195 105.62 72.195 173.29 0 67.672-27.589 128.94-72.195 173.29-44.604 44.348-106.22 71.778-174.28 71.778s-129.68-27.43-174.28-71.778c-44.606-44.35-72.195-105.62-72.195-173.29 0-67.672 27.589-128.94 72.195-173.29 44.604-44.348 106.22-71.779 174.28-71.779zm-217.48 205.46c1.6564 0 2.9988 1.3425 2.9988 2.9988s-1.3424 2.9988-2.9988 2.9988c-1.6563 0-2.9988-1.3425-2.9988-2.9988s1.3425-2.9988 2.9988-2.9988zm429.64 121.34-2.6313-1.0422-1.1224 2.8335-11.537-4.5695-1.2987 3.2789 14.168 5.6118zm-19.316 6.6961-1.4578 3.2114 11.26 5.111-2.0157 4.4405 2.6167 1.1876 5.4891-12.092-2.6168-1.1879-2.0155 4.4403zm-11.017 21.073 5.9507-0.5125c-0.2546 2.1404 0.6207 3.9773 2.6006 5.1196 2.9606 1.7082 6.0624 0.5573 8.097-2.9689l3.2963-5.7132-13.199-7.6157-1.7626 3.0547 3.6768 2.1216-1.5339 2.6585-0.0869 0.1509-5.1457 0.4241zm10.335 1.5148c-1.4329-0.8269-1.7561-2.2701-0.6791-4.137l1.4359-2.4888 4.601 2.6548-1.4359 2.4887c-1.0773 1.8669-2.4699 2.32-3.9219 1.4823zm-15.831 6.6988c-2.5938 4.0262-1.7153 8.8131 2.1094 11.277 3.825 2.4641 8.5469 1.2851 11.14-2.7411 2.6056-4.0446 1.6971-8.8252-2.1094-11.277-3.8066-2.4525-8.5348-1.3032-11.14 2.7414zm2.5255 1.6269c1.4737-2.2878 4.2476-2.9351 6.6815-1.3672 2.4338 1.5679 2.991 4.3612 1.5173 6.649-1.4737 2.2875-4.2474 2.9348-6.6812 1.3669-2.4339-1.5679-2.9913-4.3612-1.5176-6.6487zm-4.3937 26.882 2.1458-2.7162-2.7895-7.3913 7.8362 1.0022 2.3211-2.9381-11.344-1.443-4.2707-3.3736-2.1863 2.7674 4.2365 3.3466zm-22.248 1.488c-3.3106 3.461-3.3565 8.3275-0.0688 11.473 3.288 3.1449 8.1476 2.8832 11.458-0.5778 3.3255-3.4763 3.3406-8.3425 0.0687-11.472-3.2721-3.1301-8.1325-2.8991-11.458 0.5775zm2.1709 2.0767c1.881-1.9666 4.7274-2.0759 6.8195-0.0745 2.0923 2.0014 2.1092 4.8495 0.2282 6.8159-1.8813 1.9664-4.7272 2.0757-6.8193 0.0743-2.0923-2.0011-2.1094-4.8493-0.2284-6.8157zm-10.49 10.42 0.2811 13.078 1.4947 1.7296 9.7021-8.3836-1.8787-2.1741-6.1936 5.3518-0.2647-13.092-1.4946-1.7296-10.081 8.711 1.879 2.1742zm-9.5636 24.051c2.6293-1.8621 3.5756-4.9329 1.7765-7.4736-1.6609-2.3449-4.6259-2.5394-7.0243-0.841-1.2971 0.9186-2.086 2.0644-2.2986 3.3086-1.6097-2.4613-1.1276-4.643 0.9332-6.1026 0.8529-0.604 1.7656-1.0103 2.7678-1.0264l-0.4312-2.8691c-1.2606 0.0657-2.7361 0.6571-4.0506 1.5881-3.7663 2.6673-4.644 6.89-1.5994 11.189 2.8437 4.0154 6.4802 4.6675 9.9266 2.2268zm-4.365-5.7117c1.279-0.9058 2.6298-0.769 3.4351 0.3682 0.8052 1.137 0.4559 2.4515-0.77 3.3197-1.3679 0.9687-2.721 0.7534-3.4761-0.3126-0.7675-1.0838-0.4504-2.4819 0.811-3.3753zm-7.7005 13.952c2.7159-1.7332 3.8091-4.7549 2.1344-7.3792-1.5458-2.4223-4.498-2.7595-6.9754-1.1785-1.34 0.8549-2.1833 1.9613-2.4553 3.194-1.4893-2.5361-0.9027-4.6922 1.2259-6.0508 0.881-0.5621 1.8125-0.9238 2.8142-0.8918l-0.2925-2.8865c-1.2623 5e-3 -2.7645 0.5244-4.1224 1.3911-3.8904 2.4827-4.9707 6.658-2.1366 11.099 2.6467 4.1476 6.2475 4.9746 9.8077 2.7027zm-4.0846-5.9153c1.321-0.8433 2.6638-0.6413 3.4131 0.5332 0.7496 1.1745 0.3373 2.4706-0.9289 3.2787-1.413 0.9017-2.7543 0.6213-3.457-0.4799-0.7143-1.1193-0.3304-2.5006 0.9728-3.332zm-8.4408 13.414c2.795-1.6026 4.0299-4.5692 2.4817-7.2698-1.4292-2.4928-4.3622-2.9696-6.9119-1.5077-1.3788 0.7904-2.2737 1.8558-2.6039 3.0741-1.3674-2.6041-0.6793-4.7297 1.5115-5.9858 0.9065-0.5198 1.854-0.8372 2.8532-0.7576l-0.1554-2.8971c-1.2611-0.0549-2.7862 0.393-4.1836 1.1942-4.0038 2.2956-5.2806 6.4152-2.6603 10.985 2.4472 4.2683 6.0049 5.265 9.6687 3.1643zm-3.7998-6.1024c1.3596-0.7795 2.691-0.5143 3.3842 0.6945 0.6929 1.2087 0.2196 2.4839-1.0833 3.231-1.4544 0.8337-2.7807 0.4901-3.4306-0.643-0.6604-1.1521-0.2113-2.5135 1.1297-3.2825zm-23.271 15.724 1.1622 2.5804 10.501-4.7287-6.2573-13.895-3.2157 1.448 2.2795 5.0616-6.4314 2.8963 1.1622 2.5805 6.4311-2.8961 1.6538 3.6721zm-7.4126-10.649-3.2824 1.2896 5.5729 14.183 3.2824-1.2896zm-12.572 20.263-2.5134-8.904 9.8044 6.846 2.8074-0.7924-4.1398-14.666-3.3522 0.9463 2.5134 8.904-9.8253-6.8401-2.7862 0.7866 4.1398 14.666zm-13.756-9.2181 0.7911 3.4369-6.8948 1.5875 0.6156 2.6729 6.8948-1.5873 0.7423 3.2247-7.8071 1.7974 0.635 2.758 11.222-2.5839-3.4189-14.85-11.498 2.6472 0.635 2.758zm-24.834 1.2395c-2.6351 0.3322-4.6967 1.5574-5.9019 3.4867l2.5076 1.7903c0.8655-1.316 2.0636-2.0815 3.5756-2.2721 2.8293-0.3567 5.0886 1.3772 5.4481 4.2284 0.3594 2.851-1.399 5.0911-4.2283 5.4478-1.512 0.1907-2.8628-0.2534-4.0246-1.2919l-1.9851 2.3568c1.6435 1.5483 3.9446 2.2236 6.5581 1.8941 4.7085-0.5934 7.7965-4.2959 7.222-8.8533-0.5746-4.5574-4.4847-7.3777-9.1715-6.7868zm-15.634 1.2725c-4.7876 0.1232-8.2494 3.5441-8.1322 8.0924 0.1168 4.5484 3.7496 7.7867 8.5375 7.6635 4.8095-0.1236 8.2488-3.5657 8.1325-8.0922-0.1164-4.5266-3.7283-7.7874-8.5378-7.6637zm0.0773 3.0031c2.7203-0.07 4.8171 1.858 4.8914 4.7523 0.0746 2.8943-1.9203 4.9272-4.6407 4.9972-2.7203 0.07-4.8169-1.8578-4.8912-4.7521-0.0745-2.8943 1.9203-4.9274 4.6405-4.9974zm-18.046 12.522 6.5938 0.1695 0.3915-15.234-3.5255-0.0907-0.1078 4.2002-3.0683-0.0788c-4.0698-0.1048-6.6702 1.9409-6.7573 5.3357-0.0879 3.4169 2.4039 5.5933 6.4736 5.6979zm0.4056-8.1559 2.8723 0.0738-0.1357 5.2883-2.8724-0.0738c-2.1545-0.0554-3.2177-1.0629-3.1746-2.7386 0.0426-1.6538 1.1558-2.6052 3.3104-2.5497zm-17.589 6.8827 6.5442 0.8251 1.9059-15.119-3.499-0.4411-0.5254 4.1685-3.0452-0.3841c-4.039-0.509-6.8303 1.2675-7.2549 4.637-0.4275 3.391 1.8354 5.8047 5.8744 6.3138zm1.2156-8.0751 2.8507 0.3594-0.6617 5.2485-2.8507-0.3594c-2.1384-0.2695-3.096-1.3777-2.8862-3.0408 0.2068-1.6415 1.4094-2.4772 3.5479-2.2077zm-12.303-6.043-0.6198 3.4719-6.9648-1.2435-0.4821 2.7003 6.9648 1.2435-0.5816 3.2575-7.8867-1.408-0.4972 2.786 11.337 2.024 2.6784-15.002-11.615-2.0736-0.4975 2.7859zm-23.451-8.3355 1.9573 5.643c-2.1374 0.2783-3.703 1.578-4.3246 3.7776-0.9292 3.2892 0.9478 6.0137 4.8654 7.1205l6.3477 1.7933 4.1429-14.665-3.3938-0.9589-1.1541 4.0851-2.9537-0.8344-0.1677-0.0474-1.6743-4.8841zm1.0682 10.391c0.4499-1.5921 1.7697-2.2598 3.8439-1.6737l2.765 0.781-1.444 5.1118-2.765-0.7813c-2.0742-0.5859-2.8555-1.8246-2.3999-3.4378zm-25.386-19.076-5.537 14.197 2.6981 1.0611 8.6894-6.7588 1.8384 10.899 2.715 1.0677 5.5772-14.182-3.0794-1.211-3.2746 8.3266-1.4647-8.4594-1.4792-0.5816-6.9265 5.3697 3.326-8.5168zm-5.714-2.9668c-3.2754-1.475-5.7621-0.5655-7.3087 2.8686l-4.0581 9.0118 8.0788 3.638 1.1619-2.5804-4.8828-2.1989 2.9766-6.6101c0.6881-1.5284 1.7118-1.9987 3.0021-1.4176 0.9926 0.4471 1.5939 1.3385 1.8921 2.6905l2.752-1.3392c-0.4224-1.7661-1.7483-3.2225-3.6139-4.0627zm-21.859-2.2976c-1.4014-0.0496-2.6653 0.5813-3.4225 1.9039-1.1787 2.0593-0.268 4.4118 3.0384 6.3044l6.4616 3.6988 7.5703-13.226-6.8394-3.9148c-3.4764-1.9898-6.0472-1.7055-7.3557 0.5805-0.9516 1.6627-0.6559 3.3369 0.5473 4.6529zm1.313 6.1195c-1.4923-0.8543-2.0127-1.8296-1.418-2.8686 0.5949-1.0392 1.7099-1.1032 3.2025-0.2488l3.0419 1.7412-1.7842 3.1174zm4.4025-8.9181 3.5711 2.044-1.8709 3.2686-3.5711-2.0443c-1.5868-0.9082-2.1341-1.9238-1.4961-3.0386 0.6488-1.1334 1.78-1.1382 3.367-0.2297zm-25.672-20.13-8.7715 12.461 2.3659 1.6755 10.054-4.4844-0.8214 11.022 2.3807 1.686 8.8068-12.436-2.7003-1.9123-5.1708 7.3019 0.6008-8.5642-1.2972-0.9186-8.0098 3.5574 5.2664-7.4743zm-8.1058-7.4655c-3.6277-3.127-8.4901-2.9207-11.46 0.5257-2.9706 3.4464-2.4572 8.2861 1.1705 11.413 3.6441 3.1408 8.5045 2.9038 11.461-0.5259 2.9562-3.4298 2.4736-8.2718-1.1708-11.413zm-1.9613 2.2754c2.0613 1.7767 2.318 4.6134 0.4277 6.8064-1.8903 2.1933-4.7337 2.3576-6.7951 0.5811-2.0611-1.7767-2.3177-4.6131-0.4274-6.8061 1.8903-2.1931 4.7337-2.3581 6.7948-0.5814zm-24.633-6.486 6.682-6.3993-1.442 11.871 2.0177 2.1067 11.006-10.54-2.4092-2.5157-6.682 6.3993 1.4269-11.886-2.0024-2.0908-11.006 10.54zm1.6813-16.662-2.7701 2.183-4.3794-5.5568-2.1543 1.6976 4.3794 5.5571-2.5991 2.0482-4.9586-6.2923-2.2228 1.7518 7.128 9.0448 11.969-9.4324-7.3031-9.2669-2.2228 1.7517zm-6.5168-13.016-2.0505-2.8694-10.061 7.189-2.8351-3.9675-2.3381 1.6707 7.7207 10.804 2.3381-1.6706-2.8351-3.9673zm-11.647-17.372-2.0049-3.1107-9.1173 13.983 1.887 2.9275 16.488-2.5467-1.9578-3.0376-3.4758 0.635-3.833-5.947zm-1.0445 9.3495-6.213 1.1297 3.5948-5.1916zm-7.7408-25.959-2.7953 5.2782c-1.6606-1.3742-3.6786-1.6346-5.7118-0.5901-3.0403 1.5616-3.7551 4.7919-1.8951 8.4133l3.014 5.8672 13.555-6.9626-1.6113-3.137-3.7761 1.9394-1.4024-2.7301-0.0796-0.1551 2.4331-4.5537zm-6.8759 7.8637c1.4717-0.7561 2.8595-0.245 3.8443 1.672l1.313 2.556-4.7249 2.4268-1.313-2.5558c-0.9848-1.9172-0.6105-3.3333 0.8806-4.099zm-13.366-15.728 1.4296 3.1524 7.8474 0.9111-4.4843 6.5038 1.5465 3.4102 6.4847-9.4194 4.9566-2.2479-1.4566-3.2117-4.9168 2.2299zm6.484-29.993-14.644 4.2156 0.7942 2.7883 10.645 2.8043-7.5467 8.0758 0.7992 2.8057 14.656-4.1741-0.9063-3.1822-8.6052 2.4508 5.8344-6.2981-0.4353-1.5286-8.4715-2.2465 8.7876-2.5253zm-4.368-6.2988-3.4356 0.7959-1.5971-6.8923-2.6721 0.6191 1.5971 6.8925-3.2237 0.7471-1.8085-7.8048-2.757 0.639 2.5996 11.219 14.846-3.4401-2.6636-11.494-2.757 0.639zm0.0743-14.64-0.4446-3.4985-12.266 1.5586-0.6148-4.8377-2.8507 0.3622 1.674 13.174 2.8507-0.3622-0.6146-4.8375zm-2.1165-20.806-0.2816-3.6899-14.676 7.9539 0.2652 3.4731 15.712 5.6125-0.275-3.6036-3.3588-1.0969-0.5387-7.0545zm-5.3707 7.724-6.0011-1.9651 5.6331-2.8535zm5.216-13.012-0.2891-11.164-2.8729 0.0745 0.198 7.6386-12.361 0.3201 0.0912 3.5258zm0.4801-18.04c0.3315-4.3411-1.6785-6.6124-4.2146-6.8061-5.5785-0.426-4.3176 8.5566-7.1212 8.3425-0.9586-0.0733-1.679-0.9359-1.5198-3.0199 0.1027-1.3461 0.6045-2.7704 1.5155-4.1199l-2.587-1.2894c-0.9979 1.343-1.6029 3.262-1.7487 5.172-0.3298 4.3199 1.6601 6.5676 4.2465 6.7651 5.644 0.4309 4.365-8.5529 7.2084-8.3358 0.9297 0.071 1.5596 0.9705 1.4007 3.0545-0.1393 1.8233-0.9365 3.6839-1.9639 4.8934l2.5535 1.3959c1.1445-1.2665 2.0465-3.6426 2.2306-6.0523zm2.6233-55.644c-0.2882-1.3725-1.204-2.4483-2.6694-2.8656-2.2822-0.6501-4.3473 0.7987-5.3911 4.4627l-2.0399 7.1603 14.656 4.1748 2.159-7.5789c1.0974-3.8524 0.2046-6.2797-2.3288-7.0013-1.8424-0.525-3.3968 0.1639-4.3856 1.648zm-5.6254 2.7434c0.471-1.6541 1.2929-2.3931 2.4442-2.0651 1.1516 0.3279 1.4815 1.3951 1.0103 3.0491l-0.9604 3.3709-3.4545-0.9841zm9.714 2.1333-1.1273 3.9572-3.622-1.0317 1.1274-3.9571c0.501-1.7589 1.3556-2.5339 2.5908-2.182 1.2561 0.3579 1.5321 1.4551 1.0311 3.2136zm5.4247-7.8378 1.1336-3.3396-14.43-4.8987-1.1339 3.3396zm3.6954-9.6087 1.2987-3.2789-11.496-4.5529 1.7953-4.5339-2.6716-1.0582-4.8896 12.347 2.6716 1.0582 1.7956-4.5338zm7.5391-15.633c1.2138-2.3623 1.3667-4.7559 0.4549-6.8399l-2.8935 1.0589c0.5974 1.4571 0.5526 2.8784-0.1438 4.2338-1.3035 2.5363-4.0104 3.4219-6.5661 2.1086-2.556-1.3132-3.4119-4.0294-2.1087-6.5661 0.6964-1.3553 1.8258-2.2192 3.3388-2.592l-0.8239-2.9688c-2.2059 0.4821-4.0627 1.9999-5.2666 4.3425-2.1689 4.2214-0.8569 8.8604 3.2287 10.96 4.0857 2.0994 8.6212 0.4647 10.78-3.7368zm7.6373-13.703c2.5936-4.0264 1.7148-8.8133-2.1104-11.277-3.825-2.4638-8.5466-1.2843-11.14 2.7422-2.6052 4.0446-1.6961 8.8251 2.1104 11.277 3.8068 2.452 8.535 1.3024 11.14-2.7422zm-2.5255-1.6268c-1.4735 2.2877-4.2473 2.9356-6.6814 1.3677-2.4342-1.5677-2.9913-4.361-1.5178-6.6488 1.4737-2.2877 4.2471-2.9353 6.6812-1.3674 2.4341 1.5677 2.9917 4.3607 1.518 6.6485zm8.3018-7.728 2.0482-2.8711-12.406-8.8501-2.0483 2.8711zm-1.3931-23.546 7.264 5.7304-11.956 0.2174-1.8067 2.2903 11.964 9.4384 2.1573-2.7348-7.2638-5.7304 11.97-0.2345 1.7931-2.2729-11.964-9.4385zm20.659-0.5649 4.7879-5.0002c3.4479-3.6005 3.6421-8.1469 0.3086-11.339-3.3333-3.192-7.8668-2.8013-11.315 0.7995l-4.7878 4.9999zm0.3481-4.5499-6.824-6.5343 2.2283-2.3271c2.0929-2.1855 4.768-2.3668 6.8749-0.3493 2.107 2.0177 2.0417 4.6984-0.0511 6.8839zm12.376-8.1513 2.6691-2.3054-9.9608-11.533-2.6689 2.3054zm11.302-13.832c-0.4081 0.9271-1.0035 1.6147-1.7579 2.2049-2.297 1.7978-5.1392 1.4515-6.897-0.7944-1.7845-2.28-1.4108-5.0879 0.9206-6.9127 1.2173-0.9526 2.5638-1.3158 4.1627-1.074l0.4949-3.0414c-2.2255-0.442-4.5377 0.2066-6.6464 1.8568-3.8229 2.992-4.5743 7.7545-1.7432 11.372 2.831 3.6172 7.6343 4.0323 11.406 1.0806 1.7145-1.3418 3.1157-3.2953 3.6575-5.3226l-3.8106-4.869-2.5371 1.9858zm7.2806-1.2178 2.8779-2.0382-8.807-12.436-2.8781 2.0382zm8.4806-5.8355 2.9734-1.8963-6.649-10.426 4.1116-2.6222-1.5452-2.4228-11.196 7.1406 1.5452 2.4228 4.1114-2.622zm17.971-10.7 3.2106-1.8401-13.489-9.8329-3.022 1.7321 1.6851 16.599 3.1353-1.7971-0.4529-3.5043 6.1382-3.5182zm-9.2825-1.5296-0.8048-6.2633 4.9974 3.8599zm14.04-0.7992 10.183-4.5853-1.1801-2.6203-6.9673 3.1374-5.077-11.275-3.2157 1.4483zm17.696-7.7355 6.5604-2.2105c4.7243-1.5921 7.0038-5.5301 5.5301-9.9039-1.4737-4.3735-5.6717-6.1291-10.396-4.5372l-6.5603 2.2107zm2.4178-3.8698-3.017-8.9534 3.053-1.0289c2.8676-0.9662 5.3221 0.1134 6.2535 2.8777 0.9315 2.7646-0.369 5.1095-3.2366 6.0757zm17.294-5.3284-0.9584-3.394 6.8087-1.9228-0.7456-2.6396-6.8086 1.9228-0.8995-3.1845 7.7099-2.1774-0.7692-2.7235-11.083 3.13 4.1418 14.665 11.355-3.2069-0.7692-2.7235zm18.726-0.9765c2.6147-0.4662 4.6114-1.7951 5.7163-3.7834l-2.5958-1.6599c-0.7969 1.3584-1.9545 2.184-3.4547 2.4515-2.8074 0.5005-5.1523-1.116-5.6568-3.9451-0.5043-2.829 1.1374-5.1558 3.9451-5.6563 1.5001-0.2675 2.8716 0.1071 4.0851 1.0848l1.8624-2.4547c-1.7206-1.4627-4.0532-2.0198-6.6462-1.5574-4.6723 0.833-7.5673 4.6882-6.7611 9.2103 0.8063 4.5221 4.8551 7.1394 9.5057 6.3102zm11.634-4.8461-0.4413-3.499 7.0195-0.8856-0.3436-2.7215-7.0194 0.8859-0.4144-3.2832 7.9484-1.003-0.3541-2.8076-11.426 1.4417 1.908 15.119 11.706-1.4772-0.3543-2.8077zm21.499-13.88 0.2363 9.249-7.8099-9.0556-2.9162 0.0746 0.3897 15.234 3.4819-0.0892-0.2365-9.2491 7.8315 9.0549 2.8945-0.0741-0.3896-15.234zm10.64 15.304 3.5255 0.0901 0.3158-12.361 4.875 0.1247 0.0733-2.8728-13.275-0.3391-0.0733 2.8727 4.8747 0.1244zm23.694 2.0029-2.7779-5.2876c2.0719-0.5944 3.4265-2.113 3.7126-4.3808 0.428-3.391-1.8346-5.805-5.8736-6.3145l-6.5442-0.8259-1.9077 15.119 3.4988 0.4415 0.5314-4.2116 3.0452 0.3841 0.173 0.0219 2.3842 4.5796zm-2.6074-10.115c-0.207 1.6415-1.4125 2.4986-3.5509 2.2289l-2.8507-0.36 0.665-5.2699 2.8509 0.3597c2.1382 0.27 3.0956 1.3782 2.8857 3.0413zm16.297 12.447 3.6433 0.6498-4.0317-16.198-3.429-0.6118-9.3629 13.809 3.5577 0.6348 1.9021-2.9779 6.9651 1.2424zm-6.1357-7.1316 3.4034-5.319 1.3543 6.1676zm11.33 8.1776 10.747 3.0371 0.7815-2.7653-7.3529-2.078 3.3628-11.899-3.394-0.9592zm12.673 3.5109 3.3421 1.1261 4.8662-14.441-3.3421-1.1261zm11.32 0.7357 11.446-6.3324 0.8359-2.1278-11.934-4.6886-1.0508 2.6746 7.6187 2.993-11.467 6.3246-0.8357 2.1276 12.4 4.8717 1.0509-2.6746zm13.486 5.5123 1.4481-3.216 6.4512 2.9051 1.1261-2.5011-6.4512-2.9048 1.3588-3.0175 7.3049 3.2895 1.1619-2.5804-10.501-4.7285-6.2571 13.895 10.759 4.8446 1.1619-2.5805zm9.0257 7.0398 6.0079 3.4394c4.3267 2.4766 8.7851 1.5674 11.078-2.4382 2.2928-4.0053 0.8191-8.3106-3.5074-10.787l-6.0079-3.4391zm4.4992-0.7606 4.6937-8.1995 2.796 1.6004c2.6263 1.5034 3.4482 4.0556 1.9989 6.5875-1.4493 2.5316-4.0665 3.1154-6.6928 1.6122zm30.523 4.342-5.3831-3.8121-8.807 12.436 2.8779 2.0384 2.4283-3.4287 2.5049 1.7739c3.3222 2.3528 6.621 2.1014 8.5839-0.67 1.9754-2.7892 1.1173-5.9845-2.2049-8.3375zm-4.8783 6.549-2.3447-1.6606 3.0572-4.3171 2.345 1.6606c1.7588 1.2457 2.081 2.6744 1.1122 4.0423-0.9563 1.3503-2.4106 1.5205-4.1697 0.2748zm7.936 11.203 2.1739-2.7772 5.5712 4.3609 1.6906-2.1598-5.5712-4.3609 2.0399-2.6059 6.3085 4.9382 1.7442-2.2285-9.0682-7.0986-9.3931 12 9.2911 7.2728 1.7442-2.2286zm11.36 9.6011 2.4288-2.557 5.1297 4.873 1.8891-1.9888-5.1297-4.8727 2.2792-2.3991 5.8085 5.5175 1.949-2.052-8.3494-7.9312-10.496 11.048 8.5547 8.1262 1.9492-2.0518zm15.376 19.506 1.1763-5.8558c1.9832 0.8446 3.9919 0.5194 5.6434-1.0609 2.4697-2.3628 2.2347-5.6631-0.5795-8.6045l-4.5602-4.7659-11.011 10.535 2.4379 2.5482 3.0673-2.9348 2.1221 2.2178 0.1204 0.1259-1.0357 5.0584zm4.3516-9.4961c-1.1954 1.1438-2.6713 1.0493-4.1614-0.508l-1.9863-2.0762 3.838-3.6721 1.9863 2.0762c1.4901 1.5573 1.5347 3.0212 0.3234 4.1801zm2.9883 18.776 2.1847 2.7686 9.707-7.6598 3.0207 3.8283 2.256-1.78-8.2262-10.425-2.2557 1.7803 3.0207 3.8279zm9.9135 14.349c2.592 4.0272 7.3131 5.2085 11.139 2.7462 3.8259-2.4626 4.7065-7.2489 2.1142-11.276-2.6036-4.0456-7.3315-5.1967-11.139-2.7459-3.8076 2.4505-4.7181 7.2305-2.1142 11.276zm2.526-1.6258c-1.4727-2.2883-0.9143-5.0813 1.5203-6.6485 2.4346-1.5669 5.208-0.9181 6.6807 1.3702 1.473 2.2883 0.9146 5.081-1.5201 6.648-2.4346 1.5669-5.2082 0.9185-6.6809-1.3697zm23.081 15.086-3.0177-5.8654-13.551 6.9716 1.6135 3.1361 3.736-1.9221 1.4042 2.7291c1.8624 3.6202 4.9055 4.9188 7.9252 3.365 3.0394-1.5636 3.752-4.7944 1.8894-8.4143zm-7.349 3.5605-1.3145-2.555 4.704-2.4203 1.3145 2.555c0.9861 1.9165 0.6128 3.3328-0.8778 4.0998-1.4711 0.7568-2.8401 0.237-3.8262-1.6795zm1.8213 13.786 3.2797-1.2967 2.6016 6.5795 2.5507-1.0088-2.6016-6.5794 3.0774-1.2168 2.9459 7.4501 2.6316-1.0404-4.2345-10.71-14.171 5.6032 4.3385 10.973 2.6319-1.0407zm5.2594 13.771 3.3386-1.1367 2.2807 6.6973 2.5966-0.884-2.2807-6.6976 3.1323-1.0667 2.5824 7.5837 2.6792-0.9123-3.7124-10.901-14.425 4.9123 3.8033 11.169 2.6789-0.9123zm4.0393 24.558 4.0003-4.4355c1.2744 1.7384 3.1678 2.4837 5.3946 1.9678 3.3295-0.7717 4.8118-3.7294 3.8927-7.6954l-1.4888-6.4258-14.846 3.44 0.7962 3.4356 4.1355-0.9581 0.6929 2.99 0.0393 0.1697-3.4721 3.8215zm8.5889-5.9455c-1.612 0.3733-2.8331-0.4612-3.3194-2.5608l-0.6489-2.7991 5.1748-1.1992 0.6486 2.7994c0.4866 2.0996-0.2222 3.3811-1.8551 3.7597zm-261.85-45.814h-55.672v25.915h36.612v142.97h-27.049l-5.8543 26.905 52.981 4.1859v44.165h23.291v-45.273h24.082v45.142h23.028v-45.667h7.7114v3e-3l1.9369 2e-3c10.313 0.0109 18.116 0.0194 28.871-3.0446 2.6658-0.7594 5.4639-1.7067 8.3098-2.887 2.8487-1.181 5.75-2.5966 8.6214-4.2927 4.64-2.7401 8.7622-5.9905 12.435-9.6906 3.6812-3.7083 6.9132-7.8677 9.7647-12.418 3.0741-4.905 5.1365-10.618 6.3477-16.566 1.3548-6.6528 1.6417-13.601 1.0881-20.05-0.543-6.3235-2.1447-11.984-4.8425-17.043-2.6981-5.0591-6.5001-9.5312-11.443-13.476-2.7387-2.1853-5.9778-4.2988-9.8042-6.2057-3.4285-1.709-7.3197-3.2502-11.733-4.5259l-1.9336-0.5589 1.8243-0.8491c0.0247-0.0113 8.627-3.9965 15.027-11.633 2.0938-2.4983 3.6429-5.1647 4.7828-7.9592 1.1443-2.8054 1.8798-5.746 2.3417-8.7806 1.0327-6.7807 1.2088-13.573 0.0451-20.042-1.1594-6.4462-3.6502-12.585-7.9514-18.088-3.9126-5.0054-8.8382-9.1445-14.346-12.281-5.6656-3.2257-11.948-5.3898-18.38-6.3449-2.9761-0.4421-6.6686-0.8345-11.214-1.0886-4.572-0.2559-10.002-0.3743-16.427-0.2672l-0.7675 0.0128v-46.071h-23.422v45.864h-24.017v-45.733h-23.028v45.68l-1.2161-0.0161zm25.755-8.7362h20.994v-4.6534h-20.994zm20.994 1.5112h-20.994v5.7793h20.994zm137.69 207.34-9.0707 11.798-0.973-0.7481c-0.5355 0.5783-1.1226 1.2047-1.7513 1.8691-0.6058 0.6406-1.1596 1.2216-1.675 1.7581l2.7324 2.7273-0.5312 0.5322-11.645 11.666-2.8724-2.8671c-1.2984 1.1632-2.5986 2.287-3.9002 3.3623-1.5085 1.2458-3.0578 2.4615-4.6552 3.6388-8.4848 6.2553-17.756 12.025-27.449 16.98-9.2659 4.737-18.914 8.7269-28.626 11.683-25.969 7.9046-43.856 6.9112-44.039 6.9009-17.002 0.1186-34.121-2.5535-34.17-2.5608v-5e-4c-3.7247-0.4479-8.0338-1.3463-12.566-2.5319-6.218-1.6263-12.865-3.7975-18.998-6.0873-3.8391-1.4331-7.7154-3.0129-11.537-4.7397-3.5348-1.5969-7.0452-3.3298-10.463-5.2005-4.9209-2.693-9.8123-5.7915-14.521-9.1412-4.9158-3.4965-9.6342-7.2648-13.982-11.129-1.0923-0.971-2.2202-2.0012-3.3834-3.0903-0.9906-0.9271-1.9442-1.8399-2.8605-2.7376l-0.7302 0.7073-11.99-12.381 1.0372-1.0045c-0.6677-0.804-1.3311-1.6183-1.9895-2.4424-0.8229-1.0335-1.6002-2.0276-2.3288-2.9822-5.4342-7.1207-10.366-14.713-14.695-22.638-4.2796-7.835-7.9687-15.996-10.969-24.35-0.7959-2.216-1.5054-4.3279-2.1374-6.3311-0.6871-2.1779-1.311-4.3163-1.8749-6.386-1.2949-4.7496-2.3349-9.4974-3.1515-14.251-0.8188-4.7694-1.4173-9.5545-1.8248-14.364-0.6418-7.5731-0.914-14.64-0.7448-21.556 0.169-6.9116 0.7811-13.651 1.9057-20.571 1.7573-10.811 4.2058-20.725 7.5774-30.31 3.3718-9.5843 7.6678-18.837 13.12-28.327 2.4724-4.3027 4.7191-8.0836 6.985-11.592 2.2883-3.5436 4.611-6.8396 7.2225-10.152 1.2674-1.6075 2.6202-3.2489 4.0438-4.9085 1.2692-1.4798 2.6056-2.9837 3.9987-4.5003l-2.6597-2.7429 0.5402-0.5239 11.833-11.474 2.4965 2.5746c2.2528-2.054 4.5461-4.0441 6.8482-5.9381 2.4319-2.0007 4.8647-3.8849 7.26-5.6128 5.4413-3.9244 10.661-7.2577 16.073-10.254 5.4205-3.0013 11.025-5.6624 17.228-8.2388 21.744-9.0322 35.846-9.8941 35.887-9.8968l0.8057-0.0547v21.128h4.7247v-22.353h8.4413v-1.2495h14.34v10.341h-3.8567v0.8768h3.8567v10.341h-3.8613v2.1039h-1.5112v-2.1039h-4.7642v2.1039h-1.5112v-2.1039h-2.6918v-1.4165h-6.9301v3.4595h2.2523v5.0659h20.994v-5.1969h3.2507v-23.509l0.7851 0.031c3.1033 0.1227 6.1895 0.3433 9.2032 0.6312 3.0255 0.2894 5.9659 0.6453 8.77 1.0387 11.012 1.5453 20.319 3.5461 29.356 6.4563 9.0319 2.9081 17.788 6.7245 27.703 11.902 6.6673 3.4812 12.794 7.1177 18.516 11.048 5.5399 3.8048 10.711 7.8889 15.637 12.378l1.5579-1.4407 0.5105 0.5516 11.19 12.099-1.2121 1.1208c0.7416 0.8483 1.4866 1.7188 2.2349 2.6109 0.8305 0.9894 1.7047 2.0584 2.622 3.2041 5.2224 6.5238 9.9584 13.171 14.18 20.124 4.2241 6.9575 7.9355 14.224 11.105 21.982 4.5567 11.151 6.8586 20.051 7.221 21.5l15.397 15.072h41.412l15.869 8.0577c-4.527-57.279-29.768-108.77-68.282-147.06-42.643-42.398-101.56-68.623-166.63-68.623-65.076 0-123.99 26.224-166.63 68.623-42.642 42.397-69.017 100.97-69.017 165.67 0 64.699 26.375 123.27 69.017 165.67 42.643 42.398 101.56 68.623 166.63 68.623 65.076 0 123.99-26.224 166.63-68.623 25.908-25.759 45.81-57.488 57.44-92.936l-15.159-7.2064h-57.623l-18.918 18.152c-0.732 1.2297-9.3105 15.501-20.362 27.43-1.3303 1.4359-2.6716 2.8212-4.0216 4.1552-1.204 1.1888-2.4407 2.3633-3.7094 3.5222l2.1798 2.7882-0.5932 0.464-12.984 10.15-2.054-2.6275c-1.4389 1.008-2.9006 1.99-4.3831 2.9454-1.6145 1.0407-3.2733 2.0613-4.975 3.06-5.7797 3.3927-11.65 6.3754-17.722 9.0085-6.0832 2.6381-12.349 4.9201-18.906 6.9066-3.3049 1.0012-6.6679 1.9374-9.977 2.7762-3.2482 0.8231-6.4311 1.5482-9.4422 2.1439-1.1166 0.2207-2.3311 0.4398-3.6376 0.6473-1.2946 0.2056-2.6339 0.392-3.9957 0.5466l-0.8383 0.095v-8.3227h-5.8762v13.629c3.0643 0.0408 15.656-0.1642 33.207-5.5035 6.4803-1.9714 13.717-4.6631 20.748-7.7577 6.5512-2.8837 12.905-6.1092 18.278-9.418 5.1435-3.1678 10.151-6.7303 14.937-10.504 5.3312-4.2035 10.373-8.6582 15.015-13.115 1.5415-1.48 2.987-2.9343 4.2088-4.2712 0.9949-1.0884 1.852-2.1092 2.5046-3.0165l-1.011-0.7773 9.5307-12.397 7.4816 5.7515c0.0877-0.1327 0.1733-0.2642 0.2569-0.3947 0.2063-0.3211 0.3919-0.6201 0.5552-0.8941l1.2926 0.7732c-0.1922 0.3224-0.3854 0.6347-0.5783 0.9355-0.1061 0.1655-0.2156 0.3329-0.3277 0.5017l0.5828 0.4481zm97.75-120.81-16.353-8.3038h-41.669c-5.3803-5.2707-10.763-10.538-16.147-15.806l-0.0516-0.2086c-7e-3 -0.0269-2.2744-9.443-7.2018-21.502-3.1376-7.6794-6.8137-14.875-10.999-21.769-4.1884-6.8983-8.8869-13.493-14.067-19.964-0.8168-1.0203-1.6845-2.0782-2.6044-3.1744-0.7186-0.8566-1.448-1.7077-2.1868-2.5535l-3.7438 3.4623-11.7-12.651 3.3953-3.1403c-4.8448-4.4071-9.9302-8.4199-15.376-12.16-5.6893-3.9073-11.764-7.5144-18.362-10.959-9.8327-5.1342-18.514-8.9181-27.466-11.801-8.9469-2.8812-18.174-4.864-29.102-6.3974-2.8064-0.3937-5.7279-0.748-8.7051-1.0327-2.7333-0.2611-5.5261-0.4664-8.3355-0.5924v21.94h4.1565v-16.834l0.7732 0.0192c3.1431 0.0785 6.6855 0.4775 10.392 1.0825 4.3221 0.7053 8.8725 1.6908 13.273 2.7744 10.51 2.5878 19.359 5.1959 27.874 8.6501 8.5219 3.4572 16.708 7.7617 25.886 13.74 6.5165 4.2446 12.377 8.6237 17.902 13.408 5.5307 4.7896 10.719 9.9787 15.884 15.839 6.6358 7.5293 12.836 15.816 18.145 24.615 4.8927 8.1088 9.0284 16.653 12.051 25.441 3.1325 9.1065 5.0279 16.983 5.3271 18.254l14.215 17.361h48.253l16.921 8.8098c-0.0962-2.1898-0.2207-4.3723-0.3763-6.5462zm0.4476 8.2858-17.359-9.0382h-48.6c-4.9616-6.0616-9.9203-12.126-14.888-18.183l-0.0403-0.1784c-5e-3 -0.0239-1.9243-8.3813-5.3279-18.275-2.9874-8.6853-7.0766-17.133-11.915-25.152-5.2594-8.7171-11.406-16.93-17.986-24.396-5.1294-5.82-10.27-10.963-15.736-15.697-5.473-4.7395-11.28-9.0783-17.737-13.284-9.0856-5.9183-17.192-10.18-25.632-13.605-8.4473-3.4267-17.232-6.0157-27.667-8.5851-4.369-1.0758-8.8803-2.0533-13.155-2.7507-3.3459-0.5461-6.5442-0.9216-9.4118-1.0393v15.284h4.0464v-11.274l0.8649 0.1282c6.7772 1.0052 13.212 2.4129 19.229 4.0589 6.9628 1.9049 13.347 4.1267 19.044 6.4137 7.9169 3.1782 14.945 6.5654 21.46 10.374 6.5247 3.8141 12.545 8.0549 18.437 12.935 3.1821 2.6359 6.3653 5.4725 9.5047 8.4738 2.9343 2.8054 5.8218 5.7465 8.6266 8.7937l3.1981-2.6895 0.4841 0.5753 10.608 12.612-3.2038 2.6948c2.8422 3.7192 5.5259 7.5328 7.9988 11.398 2.5071 3.9192 4.7924 7.8824 6.8011 11.844 10.078 19.877 13.7 38.019 14.128 40.287l15.272 15.054h51.973l17.126 9.2581c-0.0219-2.019-0.0675-4.0322-0.141-6.0382zm0.1518 7.7588-17.512-9.4675h-52.211c-5.3491-5.276-10.696-10.555-16.052-15.824l-0.0428-0.2378c-0.01-0.0552-3.3711-19.077-14.036-40.112-1.9926-3.9298-4.2519-7.8494-6.7246-11.715-2.4311-3.8002-5.0762-7.56-7.8836-11.236l-1.9639 1.6518c-3.6955-4.3977-7.3935-8.7932-11.092-13.188l1.9686-1.6558c-2.7746-3.013-5.6231-5.9138-8.5101-8.6736-3.1015-2.9653-6.259-5.7784-9.4276-8.4027-5.8256-4.8249-11.78-9.0191-18.236-12.793-6.4654-3.7796-13.427-7.1358-21.259-10.28-5.6583-2.2714-11.989-4.4752-18.879-6.3603-5.6868-1.5555-11.769-2.8983-18.187-3.8869v9.5216h10.457v0.0887c1.9027 0.2425 3.7399 0.5218 5.4994 0.8248 1.9621 0.3378 3.8104 0.7033 5.5335 1.0798 7.3648 1.609 13.865 3.8164 20.137 6.6069 6.2588 2.7845 12.275 6.144 18.691 10.066 4.679 2.8605 9.1369 5.8231 13.398 8.9743 4.2627 3.1517 8.3212 6.4877 12.198 10.094 7.521 6.9933 14.379 15.087 20.336 23.806 6.087 8.9098 11.235 18.475 15.189 28.19 7.431 18.256 8.9624 32.383 9.1573 34.486l13.028 13.459h33.593v-3.8375h20.395v3.8375h5.6412l16.771 9.3637c0.0179-1.1891 0.0297-2.3797 0.0297-3.5731 0-0.2695-4e-3 -0.538-5e-3 -0.8072zm-0.0571 6.087-17.121-9.5591h-5.2586v3.7048h-20.395v-3.7048h-34.228c-4.6154-4.772-9.2322-9.5433-13.853-14.31l-0.0219-0.27c-3e-3 -0.0428-1.1113-14.745-9.0745-34.309-3.9147-9.617-9.0108-19.086-15.036-27.906-5.8956-8.6297-12.68-16.637-20.117-23.552-3.8408-3.5719-7.8557-6.8724-12.068-9.9873-4.2139-3.1162-8.6355-6.0538-13.286-8.8972-6.3721-3.8958-12.337-7.2278-18.52-9.9783-6.1693-2.7446-12.573-4.918-19.842-6.5061-1.7178-0.3753-3.5461-0.7372-5.4684-1.0682-1.6649-0.2869-3.416-0.5536-5.2456-0.7894v1.9571c1.9979 0.5438 4.0295 1.1407 6.0488 1.7671 2.2082 0.6849 4.3634 1.3926 6.42 2.0959 5.1763 1.7699 10.332 3.7257 15.391 5.9057 5.0592 2.1797 10.044 4.5931 14.882 7.2811 7.9461 4.4134 15.398 9.6508 22.287 15.547 7.1066 6.0823 13.622 12.873 19.47 20.19l1.2102 1.5213c0.2018 0.2561 0.4224 0.5382 0.666 0.8511l3.4393-2.314 0.4214 0.6259 9.1987 13.674-3.087 2.0767c2.313 3.6681 4.4365 7.4177 6.3716 11.337 2.0397 4.1309 3.8744 8.4556 5.5055 13.077 5.5473 15.713 7.8436 30.338 8.1287 32.243l12.081 14.779h63.906l17.063 8.7584c0.0567-1.41 0.0995-2.8232 0.131-4.2395zm-0.2048 5.8931-17.34-8.9007h-64.27c-4.2637-5.2206-8.5284-10.441-12.798-15.656l-0.0305-0.2106c-6e-3 -0.0448-2.1981-15.479-8.0887-32.165-1.6122-4.5673-3.4232-8.8373-5.4349-12.912-1.911-3.8705-4.0003-7.5622-6.2692-11.164l-2.5194 1.6951-9.6199-14.299 2.1624-1.4549-0.5982-0.7619-1.1987-1.5158c-5.783-7.235-12.232-13.956-19.275-19.984-6.8164-5.8336-14.185-11.013-22.039-15.376-4.769-2.6489-9.7098-5.04-14.747-7.2101-5.037-2.1702-10.153-4.1119-15.279-5.8644-2.0807-0.7115-4.2267-1.4168-6.3787-2.0842-1.8422-0.5713-3.7202-1.1247-5.606-1.6425v5.312c2.1231 0.5473 4.1633 1.108 6.1044 1.6687 2.0805 0.6004 3.9938 1.1873 5.7355 1.747 4.1289 1.3268 8.2239 2.8303 12.247 4.5108 3.9184 1.6369 7.7793 3.4463 11.549 5.4299 7.4978 3.9458 14.644 8.6312 21.293 13.947 6.626 5.2972 12.753 11.22 18.236 17.659 6.0155 7.0651 11.468 14.386 16.101 22.166 4.6408 7.7932 8.4582 16.042 11.194 24.95 4.8133 15.674 7.1622 31.817 7.4552 33.908l13.391 14.958h43.455v-3.7794h20.395v3.7794h6.4779l15.395 8.4214c0.1191-1.7193 0.2204-3.4434 0.302-5.1725zm-0.4179 6.8253-15.654-8.563h-6.1031v3.763h-20.395v-3.763h-44.122c-4.7168-5.2712-9.4327-10.544-14.154-15.811l-0.031-0.2287c-7e-3 -0.0499-2.3195-17.242-7.4336-33.894-2.7013-8.7969-6.4681-16.938-11.046-24.626-4.5851-7.7001-9.9885-14.953-15.954-21.959-5.4198-6.3651-11.478-12.22-18.03-17.459-6.5638-5.2475-13.631-9.8792-21.057-13.788-3.7227-1.9591-7.5423-3.7489-11.424-5.3705-3.9993-1.6707-8.0544-3.16-12.129-4.4695-1.7482-0.5616-3.6499-1.1452-5.6941-1.7354-1.746-0.504-3.6393-1.0246-5.6853-1.555v5.254c4.4852 1.0211 8.7343 2.2467 12.694 3.5746 4.1282 1.3843 7.9539 2.885 11.411 4.3841 8.1773 3.5462 15.505 7.5212 22.342 12.207 6.8432 4.6904 13.2 10.095 19.428 16.497 2.9261 3.0074 5.601 5.9392 8.0953 8.9252 2.5006 2.9937 4.8264 6.0495 7.0487 9.2984 0.6158 0.9004 1.211 1.7893 1.7832 2.6645 0.4441 0.6794 0.8886 1.372 1.3329 2.0778l2.6807-1.3995 0.3484 0.6668 7.6267 14.61-2.4142 1.2604c1.375 2.9993 2.6238 6.0623 3.7257 9.182 1.1224 3.1794 2.0908 6.4238 2.8809 9.7269 3.6391 15.21 4.7557 31.142 4.9023 33.438l13.239 13.346h75.512l15.87 8.4007c0.1494-1.548 0.2881-3.0993 0.407-4.6558zm-0.5662 6.2774-16.078-8.5111h-75.767c-4.6932-4.7357-9.3896-9.4681-14.086-14.2l-0.0171-0.2841c-3e-3 -0.0494-0.9863-17.195-4.8785-33.463-0.7718-3.226-1.7266-6.4203-2.8397-9.5733-1.0725-3.037-2.2948-6.0346-3.6443-8.9838l-3.5686 1.8631-7.9751-15.277 3.3014-1.7236c-0.4081-0.646-0.8267-1.2969-1.2544-1.9515-0.5929-0.907-1.182-1.7876-1.7656-2.6409-2.1918-3.2046-4.4887-6.2215-6.96-9.1805-2.4782-2.9669-5.1274-5.871-8.0187-8.8426-6.1555-6.327-12.437-11.668-19.198-16.302-6.7676-4.6382-14.012-8.569-22.088-12.071-3.4091-1.4785-7.193-2.9623-11.292-4.3367-3.823-1.2821-7.9121-2.4664-12.216-3.4588v4.3874c1.3551 0.3315 2.7573 0.7123 4.1776 1.1266 1.7803 0.5192 3.5633 1.0851 5.3017 1.669 6.3777 2.1424 12.107 4.3334 17.49 6.8358 5.3936 2.5077 10.451 5.3332 15.475 8.7415 5.365 3.6394 10.568 7.761 15.448 12.271 4.7626 4.4007 9.2258 9.175 13.241 14.236 3.1378 3.9549 5.9162 8.0206 8.4362 12.253 2.5193 4.2309 4.7665 8.6045 6.846 13.181 2.1625 4.7592 4.0178 9.339 5.5455 14.031 1.5283 4.6962 2.7288 9.5062 3.5803 14.723 2.207 13.516 2.4039 27.31 2.4211 29.431l11.588 13.358h11.281v-3.7879h31.389v3.7879h14.54v-3.6655h20.395v3.6655h6.5986l14.034 7.5661c0.2023-1.6196 0.3892-3.2437 0.5579-4.8733zm-0.7639 6.4757-14.203-7.6572h-6.2235v3.8768h-20.395v-3.8768h-14.54v4.4863h39.639l15.065 7.8101c0.235-1.5414 0.4527-3.0882 0.6572-4.6392zm-0.9047 6.2089-15.178-7.8685h-39.279v5.9968h37.966l15.672 6.7004c0.2904-1.6037 0.5614-3.2139 0.8189-4.8287zm-1.1017 6.3475-15.69-6.7079h-37.666v4.5972h36.515l15.952 6.5953c0.3105-1.4896 0.6057-2.9847 0.8876-4.4846zm-1.2058 5.9832-15.922-6.5827h-36.228v3.6519h34.132l17.042 7.2638c0.3388-1.4392 0.6645-2.8837 0.9765-4.333zm-1.3316 5.8206-16.986-7.2401h-33.832v4.978h-31.389v-4.978h-7.9524l-17.914 18.349c-0.7846 1.5508-10.108 19.694-23.906 33.896-3.6525 3.7594-9.4584 8.5473-15.536 13.015-6.2149 4.5687-12.73 8.8143-17.53 11.293-3.9607 2.0455-7.89 3.7318-11.996 5.2896-4.1017 1.5559-8.3692 2.9807-13.022 4.5073-2.5366 0.8322-5.2395 1.7102-7.8083 2.5273-2.1553 0.6859-4.0565 1.2765-5.4302 1.6777v5.071c4.2665-0.8448 8.3945-1.8812 12.28-3.0031 4.1567-1.2001 8.0506-2.5038 11.548-3.7788 3.7789-1.3775 7.4082-2.7863 10.917-4.2821 3.2827-1.3997 6.4512-2.8716 9.5266-4.4607l-2.7026-4.5758 14.841-8.7655 2.5215 4.269c0.3156-0.2327 0.6304-0.4677 0.944-0.7047 0.4962-0.3748 0.9931-0.7574 1.4891-1.1463h3e-3c4.406-3.4549 9.7586-8.406 14.777-13.613 4.7783-4.9574 9.2465-10.14 12.295-14.474 6.1049-8.6783 9.8621-16.707 9.873-16.73l0.0594-0.1275c6.0911-6.0734 12.166-12.165 18.248-18.247h70.152l15.255 6.2613c0.4425-1.6618 0.8682-3.3305 1.2747-5.0067zm-1.6674 6.4741-15.148-6.2175h-69.241l-17.63 17.63c-0.5098 1.0685-4.2125 8.6872-9.9419 16.832-3.0908 4.3934-7.6121 9.639-12.443 14.651-5.0594 5.2491-10.468 10.25-14.935 13.753-0.5005 0.395-1.0055 0.7836-1.5115 1.166-0.3602 0.2722-0.7211 0.5412-1.0821 0.8065l0.9105 1.5414-0.649 0.3836-14.192 8.3819-0.7342-1.243c-3.1522 1.6319-6.3775 3.1325-9.7027 4.5501-3.53 1.5049-7.1852 2.9235-10.994 4.3118-3.5127 1.2805-7.4348 2.5931-11.643 3.8081-4.0209 1.1609-8.2919 2.2301-12.699 3.093v2.7401c6.5495-0.7465 13.179-2.3744 19.337-4.3355 6.422-2.0449 12.347-4.4596 17.137-6.6167 4.7919-2.1573 9.213-4.3957 13.435-6.851 4.2158-2.4517 8.2405-5.1258 12.246-8.1586 4.9796-3.7711 9.8352-7.9497 14.379-12.429 4.3602-4.2979 8.4391-8.8767 12.072-13.642 6.8042-8.9246 12.952-18.678 12.97-18.706l0.0503-0.0806c6.2916-5.9628 12.561-11.953 18.836-17.933h65.106l14.834 6.8986c0.4234-1.439 0.8362-2.8825 1.2324-4.3328zm-1.6659 5.7944-14.727-6.849h-64.18l-18.262 17.387c-0.6025 0.9514-6.5057 10.225-12.995 18.737-3.6751 4.8204-7.8021 9.4531-12.214 13.802-4.598 4.5323-9.503 8.7542-14.527 12.559-4.0471 3.0646-8.1227 5.772-12.4 8.259-4.2705 2.4834-8.7363 4.745-13.571 6.9214-4.8184 2.1697-10.793 4.6033-17.302 6.6762-6.2991 2.0059-13.087 3.669-19.792 4.4181v0.0786h-7.3272v6.6288c1.0714-0.132 2.1021-0.2788 3.0864-0.4352 1.2267-0.1947 2.4304-0.4131 3.5847-0.6413 2.988-0.5911 6.1452-1.3105 9.3652-2.1263 3.2587-0.8259 6.5981-1.7563 9.9064-2.7585 6.5359-1.98 12.749-4.2406 18.746-6.8417 6.0089-2.6059 11.825-5.5611 17.557-8.9259 1.645-0.9657 3.2865-1.9764 4.9221-3.0308 1.4405-0.9284 2.8636-1.8842 4.2673-2.866l-2.1044-2.6921 13.578-10.614 1.9795 2.5321c1.2039-1.1022 2.3983-2.2384 3.5821-3.4076 1.3707-1.3544 2.6963-2.722 3.9748-4.1018 11.417-12.324 20.194-27.22 20.219-27.264l0.0516-0.0874c6.5132-6.2301 13.011-12.479 19.512-18.721h58.557l15.294 7.2701c0.4161-1.2974 0.8234-2.5994 1.2176-3.9066zm-257.14-210.71v-19.498c-3.2456 0.3256-16.088 2.024-34.603 9.715-6.1651 2.5605-11.721 5.1972-17.075 8.1617-5.3626 2.9691-10.535 6.2719-15.926 10.16-2.3684 1.7084-4.7758 3.5731-7.1835 5.5538-2.2515 1.8525-4.5135 3.8164-6.754 5.8583l2.2062 2.2752-12.374 11.998-2.0448-2.1087c-1.3273 1.4473-2.631 2.9167-3.902 4.3987-1.3878 1.6181-2.7265 3.2434-4.0025 4.8617-2.5852 3.2789-4.8811 6.5361-7.1394 10.033-2.2804 3.5315-4.5103 7.2822-6.9497 11.528-5.4032 9.4037-9.6606 18.574-13.002 28.073-3.3417 9.4989-5.769 19.33-7.5124 30.056-1.1146 6.8572-1.7208 13.529-1.8881 20.364-0.167 6.8301 0.1048 13.848 0.7448 21.397 0.4048 4.774 0.9972 9.5165 1.8072 14.234 0.8128 4.7324 1.8415 9.4339 3.1162 14.11 0.5377 1.9734 1.1553 4.0846 1.8628 6.327 0.6504 2.0616 1.3544 4.1617 2.1143 6.2777 2.9728 8.2774 6.63 16.367 10.874 24.138 4.2876 7.8496 9.178 15.376 14.571 22.443 0.7959 1.043 1.5654 2.0291 2.3081 2.9585h3e-3c0.6216 0.778 1.254 1.5546 1.8958 2.3283l3.0386-2.9426c-0.3637-0.429-0.7271-0.8622-1.0898-1.2992-4.0154-4.8372-7.9499-10.136-11.376-15.318-3.4398-5.2024-6.4973-10.655-9.2231-16.271-2.7192-5.603-5.1115-11.378-7.226-17.238-2.7162-7.5265-4.6035-14.554-5.9462-21.668-1.3428-7.1144-2.1422-14.312-2.6832-22.182-0.5249-7.6371-0.4448-14.001 0.1035-20.37 0.5481-6.3661 1.5629-12.732 2.9079-20.378 1.5306-8.7002 2.8731-15.307 4.8518-21.8 1.9792-6.4944 4.5826-12.828 8.63-20.964 4.5198-9.0851 8.917-17.023 14.044-24.475 5.1264-7.4509 10.973-14.397 18.386-21.494 11.268-10.786 23.278-19.989 36.313-27.404 13.042-7.4184 27.108-13.046 42.477-16.674l0.9268-0.2187v15.053zm-6.2291 0v-13.142c-14.867 3.601-28.496 9.0959-41.149 16.293-12.923 7.3506-24.834 16.478-36.012 27.179-7.3375 7.024-13.122 13.896-18.191 21.263-5.0684 7.3668-9.4339 15.25-13.932 24.292-4.0181 8.0771-6.5948 14.339-8.5418 20.727-1.9472 6.3895-3.2794 12.955-4.8045 21.623-1.3382 7.6076-2.3474 13.935-2.8902 20.242-0.5426 6.3041-0.6221 12.598-0.1035 20.146 0.5375 7.8186 1.3301 14.961 2.6595 22.005 1.3294 7.0439 3.1963 13.997 5.8818 21.438 2.0918 5.7969 4.4639 11.522 7.1665 17.09 2.6961 5.5551 5.7206 10.949 9.1229 16.094 3.4066 5.1529 7.3066 10.406 11.276 15.188 3.8204 4.6027 7.7144 8.7793 11.302 12.017 5.0909 4.5942 10.415 8.9763 15.908 13.106 5.537 4.163 11.268 8.0877 17.13 11.734 6.0682 3.7754 12.066 6.6462 18.245 9.0549 6.1903 2.4132 12.582 4.371 19.414 6.3122 1.8291 0.5196 3.6368 0.9989 5.2952 1.3833 1.2906 0.299 2.494 0.542 3.5504 0.7032v-11.916h-4.7254v5.3292l-0.8707-0.137c-1.4989-0.2361-3.0988-0.5846-4.7516-1.0138-1.8118-0.4705-3.7041-1.0438-5.6083-1.6763-6.2751-2.0837-13.196-4.8269-19.865-7.9884-5.9949-2.8416-11.795-6.024-16.753-9.3717-5.3913-3.6403-10.604-7.5862-15.585-11.828-4.8586-4.1373-9.4749-8.5393-13.797-13.195-0.3881-0.4178-0.8289-0.8992-1.3238-1.4455-0.3068-0.3385-0.6076-0.673-0.9023-1.0037l-1.3671 1.109-10.858-13.385 1.4717-1.1937-0.6296-0.8888c-3.589-5.1289-6.9989-10.678-10.022-16.412-2.8608-5.4271-5.3828-11.033-7.39-16.619-1.5666-4.3602-2.9159-8.2332-4.0599-11.926-1.1498-3.7123-2.0991-7.2592-2.8631-10.958-1.0641-5.1531-1.7608-10.751-2.191-16.404-0.5146-6.7651-0.6488-13.64-0.5768-19.935 0.0549-4.8042 0.3123-9.2762 0.7695-13.579 0.4579-4.3088 1.1183-8.4652 1.9782-12.631 1.0072-4.8775 2.1762-9.6618 3.5396-14.364 1.3659-4.7113 2.9235-9.3301 4.704-13.866 2.019-5.144 4.3614-10.313 6.9832-15.382 2.5615-4.9524 5.3953-9.8153 8.4609-14.472 3.5633-5.4128 7.4645-10.606 11.668-15.546 4.0735-4.7874 8.4203-9.3274 13.008-13.589l-2.3155-2.7233 0.5758-0.4896 12.556-10.675 2.4218 2.8481c0.0909-0.068 0.1564-0.1163 0.1589-0.1163 6.25-4.6541 12.417-8.6473 18.816-12.173 6.3968-3.5244 13.034-6.587 20.224-9.3802 7.1459-2.7762 12.142-4.2411 12.156-4.2451l0.9682-0.2836v6.7759zm2.8391 292.83v13.629l-0.8412-0.0987c-1.2914-0.1519-2.853-0.4529-4.5569-0.8476-1.6931-0.3924-3.5232-0.8775-5.3662-1.4009-6.8618-1.9498-13.291-3.9194-19.55-6.3596-6.2701-2.4444-12.353-5.3548-18.499-9.1787-5.8787-3.657-11.645-7.6071-17.236-11.811-4.9548-3.7255-9.7566-7.6384-14.359-11.71l-3.3749 3.2684c0.9456 0.9269 1.8808 1.823 2.8047 2.688 1.0483 0.9818 2.1688 2.0026 3.3597 3.061 4.3169 3.837 8.9919 7.5715 13.852 11.028 4.668 3.3204 9.5082 6.3875 14.368 9.047 3.3646 1.8415 6.8429 3.5575 10.362 5.1476 3.8166 1.7245 7.6592 3.2914 11.443 4.7039 6.085 2.2719 12.68 4.426 18.85 6.04 4.4877 1.174 8.7471 2.0613 12.412 2.4978v-7e-4l0.0191 3e-3c0.4446 0.0526 0.8803 0.0987 1.3065 0.138v-19.845zm6.5059 0v20.106c5.436 0.7264 17.896 2.18 30.388 2.1502v-22.388h-2.3802v-3.4837h-21.06v3.6149h-2.316v2.2135h6.9303v-1.4113h2.6644v-1.9391h1.5112v1.9391h4.7365v-1.9391h1.5112v1.9391h2.3062v10.508h-2.3062v0.71h2.3062v8.9805h-12.73v-1.2223h-8.4415v-19.778zm31.9-0.1312v22.41c3.5464 0.0924 20.001 0.0813 42.812-6.8621 9.6251-2.93 19.19-6.8857 28.379-11.583 9.6073-4.9112 18.809-10.639 27.242-16.856 1.5558-1.1468 3.0827-2.3457 4.5846-3.586 1.308-1.0808 2.5709-2.1694 3.7957-3.2637l-1.9097-1.9062 12.176-12.198 2.05 2.0462c0.6012-0.6246 1.1566-1.2057 1.6493-1.7268 0.51-0.5393 1.0553-1.1219 1.6435-1.7586l-4.8821-3.7532c-0.6801 0.9372-1.5659 1.9901-2.5915 3.1119-1.265 1.3841-2.7296 2.8593-4.2738 4.3418-4.6859 4.4992-9.7662 8.9889-15.127 13.215-4.8128 3.795-9.8657 7.3882-15.079 10.599-5.4505 3.3565-11.866 6.6152-18.461 9.5183-7.0645 3.1091-14.361 5.8216-20.919 7.8167-20.494 6.2346-34.392 5.5518-34.432 5.55l-0.7231-0.0317v-15.084zm124.33-35.714 7.6927-10.006-6.8956-5.3012-7.6924 10.006zm-61.534 5.7704-14.637 7.5771-1.6402-3.168c-3.7628 1.6104-7.7484 3.1338-11.948 4.5165-3.9255 1.2922-8.0635 2.4722-12.412 3.4986v5.005c1.3536-0.4008 3.0754-0.936 4.9758-1.5408 2.2767-0.7241 5.0357-1.6215 7.7962-2.5273 4.6426-1.5233 8.8965-2.9434 12.957-4.4836 4.0557-1.5387 7.9333-3.2025 11.837-5.2185 4.728-2.4414 11.169-6.6412 17.329-11.169 6.0183-4.4236 11.756-9.152 15.347-12.85 14.246-14.662 23.669-33.572 23.696-33.627l0.0546-0.1091c6.1782-6.3177 12.347-12.645 18.518-18.969h8.5836v-3.6519h-13.555l-15.451 16.212c-0.4768 1.1498-4.0864 9.6966-9.7684 18.69-3.7453 5.9289-8.8967 11.895-14.58 17.403-6.4671 6.2679-13.63 11.951-20.197 16.315-1.2626 0.8392-2.6056 1.7006-4.0297 2.5792-1.208 0.7453-2.4523 1.4883-3.7293 2.2238l1.5249 2.9454zm-40.638 10.874c4.161-0.9926 8.1426-2.1334 11.94-3.3834 4.1566-1.3685 8.0657-2.8583 11.727-4.4217l-1.7044-3.2925c-8.1587 5.7042-19.048 6.6629-21.963 6.82zm0-5.7843c1.1969-0.066 3.692-0.2667 6.7583-0.8674v-5.0904h-2.055v-7.8978h2.055v-6.96l-0.5581-5e-4v3e-3h-6.2002zm8.2695-20.814v6.9587h4.0424v-6.9627c-1.3115 6e-3 -2.6548 5e-3 -4.0424 4e-3zm5.5536-0.0154v6.9741h1.9435v1.2901h16.664l4.0922-2.1185 2.5683 4.9612c1.2629-0.7274 2.4734-1.4508 3.6318-2.1654 1.3699-0.845 2.7011-1.7001 3.9884-2.5555 6.4963-4.3173 13.582-9.9389 19.979-16.138 5.6057-5.4332 10.679-11.306 14.356-17.125 6.0299-9.5443 9.6939-18.566 9.7045-18.592l0.0539-0.132c5.3707-5.6226 10.73-11.258 16.094-16.886h14.197v-4.5972h-5.5455v-1.5113h5.5455v-5.9968h-16.595l-25.269-25.354v-1.7594h-8.7825v-9.0085h17.728v9.0085h-7.4338v1.1413l24.379 24.46h15.974v-4.4863h-11.965c-4.1333-4.769-8.2708-9.5342-12.406-14.301l-1e-3 -0.2809c0-0.0428-0.0272-14.911-2.4051-29.476-0.8373-5.1296-2.0203-9.8671-3.5275-14.498-1.5087-4.635-3.3446-9.1657-5.4861-13.878-2.0686-4.5526-4.2899-8.8793-6.7633-13.033-2.4729-4.1532-5.2138-8.161-8.3244-12.082-3.9675-5.0009-8.3768-9.7177-13.081-14.065-4.8368-4.469-9.98-8.545-15.272-12.134-4.9428-3.3532-9.9309-6.1392-15.262-8.6176-3.8343-1.7823-7.8421-3.4046-12.135-4.9627v1.7354h3.1104v9.2861h-3.1104v5.9991c0.5318 0.025 1.0529 0.0519 1.5629 0.0804 4.6136 0.2579 8.3486 0.6544 11.35 1.1002 6.6139 0.982 13.076 3.2086 18.906 6.5278 5.6734 3.2305 10.751 7.4988 14.789 12.665 4.4625 5.7088 7.0457 12.072 8.2466 18.749 1.1972 6.6547 1.0211 13.609-0.033 20.531-0.4788 3.1449-1.2437 6.1989-2.4363 9.1231-1.1972 2.9346-2.8246 5.7354-5.0247 8.3607-4.8679 5.8082-10.968 9.5747-13.867 11.167 3.7884 1.1919 7.1738 2.5734 10.197 4.0801 3.9227 1.9548 7.2504 4.1272 10.07 6.377 5.1032 4.0725 9.0347 8.7009 11.833 13.948 2.7988 5.2481 4.4589 11.103 5.0193 17.627 0.5645 6.5724 0.2693 13.667-1.1173 20.475-1.2443 6.1105-3.3711 11.992-6.5487 17.062-2.9152 4.6519-6.2155 8.9002-9.9712 12.684-3.764 3.7923-7.9862 7.1218-12.736 9.9269-2.9368 1.7346-5.9017 3.1814-8.8103 4.3874-2.9109 1.2072-5.7634 2.1734-8.475 2.9459-8.8735 2.5278-15.747 3.0001-23.598 3.0824zm-0.8677-200.97v-5.9344h-4.8201v5.8034c1.6944 0.0272 3.2995 0.0718 4.8201 0.131zm-6.3313-0.1504v-5.784h-1.7208v-1.444h-4.6401v7.2444c2.243-0.0315 4.361-0.0357 6.3609-0.0164zm-6.3609-8.7392h4.6401v-3.4036h-4.6401zm0-4.9148h4.6401v-1.4161h1.7283v-4.4077c-0.8705-0.2746-1.7424-0.5403-2.6099-0.7932-1.2513-0.365-2.5094-0.7083-3.7585-1.0188zm21.001 228.94-0.0504-0.0972 8.297-4.2952h-13.744v5.0964h-7.4971v4.7705c4.0958-0.9327 8.9214-2.5769 12.995-5.4745zm5.3833 7.1142 12.627-6.5369-3.3985-6.5646-12.627 6.5369zm61.943 6.4623 10.047-10.065-3.7159-3.7091-10.047 10.065zm-42.287-2.9824 12.244-7.2313-2.6691-4.5194-12.244 7.2313zm21.048 1.6291 11.205-8.7597-3.2343-4.1373-11.205 8.7595zm-213.33-77.824 5.2544 8.9075 10.729-13.649h0.8206v-4.3536h-9.2246zm8.0434 13.776-3.5595 2.0999c1.7508 2.7208 9.9775 15.264 17.107 22.074l1.2354-5.6785c-5.7981-5.1881-11.552-13.478-14.783-18.495zm13.174 25.891c-7.4522-6.8124-16.281-20.296-18.034-23.024l-2.1968 1.2959-8.7574-14.846 6.3623-3.7532 8.2892-9.947h9.9243v-1.4548h7.5313v-2.2651h-7.5313v-1.2367h-17.2l-10.838 10.97c0.3745 1.1312 1.485 4.3934 3.0932 8.3282 2.0641 5.0513 4.6416 9.983 7.5051 14.758 2.8598 4.769 6.0155 9.3929 9.2352 13.83 2.0304 2.7978 4.2532 5.676 6.5225 8.2952 1.5846 1.8289 3.1988 3.5396 4.796 5.0181zm-1.6706 7.6719c-1.8407-1.6377-3.7197-3.6064-5.5644-5.7355-2.314-2.6706-4.5617-5.5795-6.6052-8.3954-3.2303-4.4514-6.4064-9.1073-9.3057-13.942-2.8955-4.8284-5.5062-9.8268-7.6058-14.965-2.039-4.9888-3.2762-8.8617-3.2794-8.8727l-0.1345-0.432c3.9776-4.0219 7.9516-8.0474 11.927-12.072h17.826v-4.6521h-23.88l-11.594 12.179c0.5123 1.9649 2.8661 10.745 6.0739 18.834 0.6929 1.7475 1.5196 3.5605 2.444 5.4047 0.8908 1.7777 1.8754 3.5872 2.9207 5.3979l2.6855-1.7145 0.4055 0.635 8.8682 13.89-2.518 1.6077c0.3816 0.5261 0.7672 1.0515 1.1539 1.5739 0.5347 0.7221 1.0276 1.379 1.4802 1.9747 2.1984 2.8915 5.0944 6.3644 8.0978 9.5493 2.2147 2.349 4.4818 4.5325 6.5565 6.1926l42.015 1.0331v-2.7368l-42.275-3.3401zm43.478 4.8745v6.2044h3.4575v-5.9311zm4.9723 0.3929v5.8115h1.375v7.8977h-1.374v4.539h1.3772v7.7429c0.6325 0.2546 1.2345 0.4932 1.8019 0.7135 0.4572 0.1776 0.9153 0.3537 1.3748 0.528v-26.873zm4.5549 28.842c-0.6579-0.2468-1.2972-0.4906-1.9178-0.7319-0.7282-0.2829-1.3949-0.5466-2.0034-0.7914h-9.6586v-4.2808c-14.672-7.1414-20.758-13.33-20.775-13.348l-1.2664-1.2841h22.045v-2.594h2.5381v-2.081l-40.286-0.9904c5.0707 4.8806 24.281 22.033 51.325 29.909zm0 5.3768c-29.652-8.506-50.112-28.112-53.304-31.309-2.3167-1.7611-4.8964-4.2181-7.4038-6.8776-3.025-3.2079-5.9593-6.7288-8.198-9.6732-0.5186-0.6826-1.0196-1.3488-1.4918-1.9868-0.3942-0.5322-0.7997-1.0853-1.2153-1.6594l-3.1741 2.0269-9.274-14.526 3.0081-1.9203c-1.0697-1.8505-2.0795-3.7065-2.9965-5.5359-0.9433-1.8817-1.7876-3.7345-2.4969-5.5226-3.6741-9.2644-6.2306-19.388-6.2381-19.418l-0.1051-0.406 12.62-13.256h24.523v-1.2634h7.5403v-0.9319h-7.5403v-1.345h-32.483l-13.017 10.625c0.634 2.3414 3.5885 13.086 6.8802 22.305 0.9458 2.6487 2.02 5.2382 3.1948 7.7751 1.1785 2.5451 2.4618 5.047 3.8209 7.5103 4.6801 8.4816 10.164 16.563 16.347 24.058 6.0966 7.3882 12.876 14.21 20.24 20.286 4.2813 3.5321 8.9183 6.9601 13.58 10.074 4.7048 3.1419 9.4372 5.9638 13.857 8.2496 3.0537 1.5792 6.1764 3.0731 9.2591 4.4395 3.1472 1.3954 6.2452 2.655 9.177 3.734 1.0257 0.3774 2.047 0.7353 3.05 1.0637 0.6241 0.2043 1.2384 0.3972 1.8397 0.5766zm0 8.6629c-0.7688-0.2226-1.539-0.4611-2.3062-0.7125-1.0344-0.3388-2.0727-0.7022-3.1028-1.0813-2.9631-1.0906-6.0908-2.3621-9.2657-3.7698-3.095-1.372-6.2452-2.8794-9.3417-4.4808-4.4635-2.3085-9.2466-5.1609-14.005-8.3383-4.7-3.1386-9.3768-6.5963-13.698-10.162-5.8614-4.8362-11.356-10.14-16.435-15.821l-3.5092 2.8464c0.2862 0.3211 0.569 0.6357 0.8479 0.9435 0.3785 0.4181 0.8175 0.8957 1.3117 1.4279 4.299 4.6309 8.8715 8.9931 13.667 13.077 4.91 4.1814 10.08 8.0922 15.455 11.722 4.8992 3.3078 10.63 6.4517 16.552 9.2594 6.6286 3.1426 13.489 5.8631 19.694 7.9234 1.8598 0.6176 3.7186 1.1803 5.5135 1.6465 1.2943 0.3363 2.5472 0.6204 3.7332 0.8365v-3.5565h-5.1112zm3.8423-291.07v-4.7504c-1.7714 0.5534-5.8392 1.876-11.07 3.9081-7.1164 2.7646-13.693 5.7999-20.042 9.2977-6.3455 3.4965-12.456 7.4522-18.643 12.059l-0.0793 0.0592 1.953 2.2971-13.131 11.165-2.0606-2.4236c-4.5433 4.2245-8.8342 8.7058-12.84 13.414-4.159 4.8878-8.023 10.032-11.556 15.398-3.0271 4.5982-5.8334 9.4158-8.3784 14.336-2.5958 5.0186-4.9163 10.14-6.9182 15.241-1.7709 4.5116-3.3146 9.0864-4.6627 13.736-1.3505 4.6581-2.5099 9.4034-3.5098 14.246-0.8483 4.1095-1.501 8.2191-1.9546 12.489-0.4544 4.2761-0.7098 8.7-0.7639 13.432-0.0713 6.2316 0.063 13.058 0.5768 19.811 0.4264 5.6067 1.1145 11.144 2.1618 16.216 0.7524 3.6424 1.6898 7.1444 2.8273 10.816 1.1433 3.6904 2.4832 7.5378 4.0368 11.861 1.9784 5.5057 4.4722 11.046 7.3068 16.424 2.9998 5.6903 6.3752 11.186 9.9213 16.253l0.5675 0.8004 3.4998-2.8388c-3.5529-4.9803-6.8139-10.161-9.7578-15.496-1.374-2.49-2.6729-5.0231-3.8683-7.6045-1.1992-2.5896-2.2916-5.2211-3.2477-7.899-3.7234-10.428-7.0318-22.86-7.0414-22.896l-0.1244-0.4677c4.733-3.86 9.4629-7.7237 14.194-11.586h33.014v-5.8072h-36.69c-1.1168-1.1155-12.767-12.744-12.776-12.744-0.0809-0.0809-0.4252-5.7473 0.1143-13.649 0.2794-4.0934 0.7448-8.8503 1.5057-13.834 1.2523-8.2025 3.4011-16.009 6.1913-23.594 2.7812-7.5615 6.208-14.914 10.023-22.227 4.834-9.2667 11.342-18.677 18.73-27.369 7.4943-8.8166 15.9-16.904 24.387-23.361 4.5189-3.4378 9.2334-6.6306 14.081-9.5923 5.1372-3.1392 10.426-6.0208 15.793-8.663 2.4785-1.2203 5.0481-2.4082 7.6792-3.5265 2.2638-0.9621 4.5722-1.8724 6.9053-2.7076v-0.2239zm-3.6444 1.8273c-2.1374 0.7763-4.2473 1.6128-6.3149 2.4915-2.6059 1.1075-5.1499 2.2838-7.6026 3.4913-5.3269 2.6225-10.577 5.4825-15.675 8.5979-4.8048 2.9359-9.4763 6.0991-13.951 9.5037-8.4017 6.3926-16.726 14.402-24.151 23.137-7.3247 8.6174-13.77 17.933-18.548 27.091-3.7778 7.2418-7.1749 14.533-9.9394 22.049-2.7563 7.4928-4.8786 15.202-6.1148 23.299-0.7566 4.9553-1.218 9.6659-1.4941 13.71-0.511 7.4811-0.5808 12.45-0.5511 12.48l12.326 12.301h43.611v-3.5426h-36.817c-5.0725-5.846-10.142-11.694-15.22-17.536l0.0393-0.3292c6e-3 -0.0506 2.0729-17.626 7.1434-35.775 2.525-9.039 5.6331-17.214 9.5752-24.974 3.9451-7.7658 8.7234-15.115 14.586-22.498 3.4096-4.2937 7.0403-8.3859 10.891-12.266 3.8197-3.8487 7.8532-7.4844 12.099-10.897 0.6538-0.5254 1.3251-1.0556 2.0135-1.5896 0.4894-0.3798 0.9911-0.7639 1.5042-1.1516l-1.5783-2.3532 0.6259-0.4199 13.688-9.1798 1.5649 2.3331c2.489-1.486 5.0289-2.9134 7.6144-4.2818 2.8043-1.4846 5.6523-2.8943 8.5375-4.23 2.0225-0.9362 4.104-1.8435 6.2271-2.6993 1.9361-0.7806 3.9108-1.5186 5.9109-2.1974zm0 6.155c-1.7895 0.6176-3.5776 1.2912-5.3503 2.006-2.0804 0.8387-4.1398 1.7366-6.156 2.6701-2.8671 1.3271-5.6913 2.7253-8.4665 4.1942-2.5225 1.3352-5.0161 2.7361-7.4754 4.2033l2.1959 3.2741-14.313 9.5996-2.1843-3.2567c-0.4682 0.3546-0.943 0.7183-1.4236 1.0914-0.6549 0.508-1.3185 1.0324-1.9898 1.5719-4.205 3.3799-8.197 6.9782-11.975 10.785-3.8043 3.833-7.3976 7.8839-10.779 12.142-5.8004 7.3046-10.524 14.569-14.42 22.238-3.8985 7.6741-6.9721 15.758-9.4689 24.696-4.638 16.6-6.7482 32.745-7.056 35.222l14.325 16.504h28.593v-4.6244h-23.009c-5.1145-5.5102-10.23-11.02-15.352-16.524l0.0476-0.3531c7e-3 -0.0544 2.4669-18.907 7.9968-35.047 1.4022-4.0924 3.2267-8.3133 5.2304-12.446 1.9986-4.1224 4.1776-8.1607 6.2936-11.898 1.9187-3.3887 4.0367-6.8621 6.3482-10.18 2.322-3.333 4.8496-6.5258 7.5819-9.346 0.6632-0.6846 1.3629-1.3742 2.0931-2.052 0.5815-0.5401 1.1908-1.0798 1.8263-1.6123v-5.1742h5.3334c2.2069-2.2971 20.457-20.634 51.554-32.368zm-56.888 44.849c-0.2693 0.2395-0.5357 0.4818-0.7992 0.7264-0.7153 0.6639-1.3966 1.3354-2.0397 1.9991-2.662 2.7477-5.1382 5.8782-7.4227 9.1571-2.2946 3.2938-4.3869 6.7238-6.2772 10.062-2.1004 3.7099-4.2632 7.7182-6.2467 11.809-1.9782 4.0803-3.7781 8.2438-5.1594 12.275-5.0511 14.742-7.5197 31.768-7.8842 34.411l14.417 15.518h22.355v-2.5278h7.5403v-0.9322h-24.168l-14.227-15.862 0.0376-0.332c3e-3 -0.0312 1.1853-10.852 4.4254-22.81 1.7636-6.5082 3.7695-11.83 6.2729-16.895 2.4998-5.0581 5.4893-9.8462 9.2256-15.299 1.7445-2.5459 3.6381-5.141 5.5239-7.4232 1.4963-1.8115 2.9965-3.4348 4.4254-4.6949zm0 11.241c-1.0591 1.0368-2.1581 2.2616-3.2623 3.5981-1.8601 2.251-3.7247 4.806-5.4412 7.3113-3.701 5.4015-6.658 10.136-9.1193 15.116-2.4576 4.9722-4.4295 10.206-6.1667 16.617-2.8859 10.651-4.1221 20.369-4.3458 22.255l13.318 14.848h15.961v-5.9581h-11.104c-4.2907-4.8791-8.5818-9.7578-12.877-14.633l0.0615-0.3549c0.0161-0.0934 5.4339-32.286 22.976-50.927zm0 10.108c-15.352 17.322-20.802 45.161-21.426 48.592l11.946 13.576h10.423v-1.1941h7.5328v-4.6415h-14.078l-10.75-12.841 0.098-0.3763c0.0202-0.0776 6.7447-26.308 20.979-42.691h-4.7254zm6.7437 0.4246c-13.619 14.934-20.551 39.4-21.44 42.694l9.7969 11.703h41.512v-3.3771h-33.72c-3.5698-4.3853-7.1384-8.772-10.711-13.155l0.1375-0.396c0.0245-0.0705 8.194-23.819 19.002-37.469zm29.869 55.908h-19.184v4.6415h7.5172v1.2236h11.667zm0 7.3764h-11.667v5.9286h11.667zm0 7.4398h-19.191v0.9322h7.5247v2.5291h11.667zm0 4.9725h-11.667v4.6231h11.667zm0 6.1344h-19.191v3.5426h19.191zm0 5.0538h-11.667v5.8498h11.667zm0 7.361h-11.667v1.3025h-7.5247v0.9319h7.5247v1.2244h11.667zm0 4.97h-11.667v4.7221h11.667zm0 6.2334h-11.667v1.2057h-7.5156v2.2651h7.5156v2.3754h11.667zm0 7.3575h-11.667v3.4312h11.667zm0 4.9425h-11.667v1.3455h-7.5172v4.612h19.184zm0 7.4688h-6.6671v3.6665h2.4157v11.066h4.2514zm-5.7627 14.733v-9.5551h-8.5541v9.5551zm-10.065 0v-11.066h2.5124v-3.6665h-13.755l-8.3236 8.3592c0.6168 1.3898 2.8544 5.8598 7.7987 10.238l0.8408-3.8643zm-12.131 5.54c-6.7177-5.682-9.0231-11.804-9.0299-11.822l-0.172-0.4523 9.0246-9.0629v-5.0589h-7.5328v-1.3438h-0.0887l-9.7568 12.412c1.4521 2.4361 8.7519 14.393 16.238 21.387zm-18.475-11.302-7.2247-12.248-4.5209 2.6668 7.2247 12.248zm-2.4202 55.504-9.8931-10.216-3.7713 3.6519 9.8931 10.216zm-0.9705-18.112-8.9594-11.045-4.0778 3.3078 8.9596 11.045zm5e-4 -18.159-7.6539-11.988-4.4267 2.826 7.6539 11.988zm236.35-138.03-6.5822-12.608-4.6559 2.4306 6.5823 12.608zm4.5852-19.822-7.9386-11.8-4.3564 2.9311 7.9383 11.8zm0.0236-20.087-9.1556-10.886-4.0201 3.3811 9.1558 10.886zm0.5406-19.116-9.6584-10.443-3.8567 3.567 9.6581 10.443zm-240.47-12.547-10.209 9.8999 3.6545 3.7688 10.209-9.8997zm19.308 0.2755-10.834 9.211 3.4 3.999 10.834-9.2112zm19.495 0.8571-11.812 7.922 2.925 4.3609 11.812-7.9219zm6.2701 8.9907 14.488-7.8625 1.2607 2.3228c1.3203-0.6907 2.6525-1.3722 3.9927-2.0412 1.3515-0.6745 2.7696-1.3657 4.2556-2.0717v-3.9854c-27.594 10.528-44.824 26.221-49.432 30.758h6.9041c1.2287-1.1166 7.6653-6.7946 19.315-14.095l-1.4463-2.6648zm23.996-7.9819c-1.1989 0.5745-2.394 1.1596-3.5826 1.753-1.3773 0.6874-2.6923 1.3597-3.9464 2.0148l1.9639 3.6187-4.5133 2.4494c3.2506-1.5266 6.6512-2.8655 10.078-3.8307zm0 7.5759c-13.675 3.9715-26.88 13.924-31.362 17.526h31.362zm-33.736 17.526c1.1317-0.9559 6.6288-5.503 14.122-10.091l-1.1012 0.5977-1.7767-3.2736c-9.277 5.8198-15.183 10.573-17.75 12.767zm23.62-22.933-12.498 6.783 2.5024 4.6105 12.498-6.7827zm200.48 225.16c-0.0282 0.0446-9.7206 15.433-27.386 31.172-9.8898 8.8115-21.079 16.31-32.981 22.486-12.629 6.5537-26.062 11.617-39.595 15.18-14.985 3.9444-30.933 5.8171-46.847 5.6614-16.004-0.1564-31.972-2.3646-46.891-6.5787-20.052-5.6641-38.906-15.318-55.642-27.856-17.267-12.935-32.281-28.944-44.033-46.811-4.3776-6.6555-7.8844-12.994-10.928-19.554-3.0406-6.554-5.6233-13.339-8.1536-20.89-2.9243-8.7269-4.8055-15.958-6.0369-23.317-1.2304-7.3519-1.812-14.831-2.1387-24.059-0.4541-12.842 0.536-25.505 2.8643-37.926 2.383-12.711 6.1664-25.171 11.237-37.313 2.3064-5.5225 4.903-10.905 7.8336-16.235 2.9295-5.3284 6.193-10.606 9.8346-15.922 3.8439-5.6115 7.9282-10.801 12.442-15.896 4.5103-5.0911 9.4367-10.073 14.97-15.276 9.6674-9.0907 19.514-16.376 30.143-22.412 10.62-6.0306 22.021-10.811 34.805-14.897 13.116-4.1914 26.408-6.6532 39.841-7.6632 13.432-1.01 27.008-0.5713 40.695 1.0379 11.267 1.3244 22.766 4.4668 33.847 8.7678 12.351 4.7939 24.185 11.03 34.601 17.792 7.2066 4.6788 14.562 10.599 21.489 16.995 7.6081 7.025 14.71 14.633 20.539 21.806 5.5297 6.8056 10.529 14.43 14.935 22.405 4.804 8.6954 8.9103 17.82 12.235 26.763 0.5644 1.5186 1.1145 3.0638 1.6389 4.6229 0.4413 1.3118 0.8632 2.6238 1.2584 3.926h3.4446c-1.1795-3.0107-4.78-12.169-8.3922-21.042-3.093-7.5973-5.6346-13.328-8.6438-18.855-3.0159-5.5395-6.5109-10.898-11.507-17.746-3.8075-5.2191-8.6183-10.791-13.736-16.127-5.5914-5.8309-11.537-11.369-16.933-15.851-6.987-5.8052-14.366-10.798-22.107-15.194-7.7388-4.3944-15.845-8.1924-24.288-11.609-12.721-5.1483-24.123-8.2849-35.774-10.077-11.674-1.7951-23.594-2.2445-37.331-2.017-9.9052 0.1637-18.703 1.0445-27.846 2.921-9.1425 1.8764-18.645 4.7543-29.959 8.913-9.6216 3.5363-17.719 7.3356-25.467 11.843-7.758 4.5133-15.176 9.7407-23.429 16.128-5.6689 4.3874-10.924 9.1848-15.88 14.289-4.9558 5.1048-9.6147 10.52-14.089 16.143-4.8017 6.0341-8.9526 12.093-12.682 18.413-3.7295 6.321-7.0406 12.91-10.163 20.004-2.9587 6.7233-5.2503 13.373-7.1549 20.13-1.9067 6.7648-3.4293 13.648-4.8471 20.828-1.6818 8.5151-2.5739 15.162-2.8958 21.791-0.3221 6.6359-0.0756 13.285 0.5196 21.794 0.5335 7.6262 1.334 14.563 2.5812 21.412 1.2483 6.8545 2.9462 13.637 5.2738 20.952 2.5164 7.9091 5.5059 15.511 8.9873 22.884 3.4779 7.3663 7.4477 14.501 11.928 21.484 1.2712 1.9812 2.5855 3.9385 3.9524 5.877 1.3584 1.9263 2.7777 3.8453 4.2685 5.7628 4.3267 5.5659 9.0856 11.001 14.026 16.067 4.9954 5.1219 10.182 9.873 15.302 14.006 9.6374 7.7806 21.209 14.829 33.423 20.725 12.817 6.187 26.336 11.103 39.064 14.262 9.6984 2.4074 19.191 3.807 29.072 4.2808 9.8843 0.474 20.17 0.0217 31.449-1.2755 12.859-1.4785 25.262-3.9451 37.323-7.5872 12.06-3.6416 23.775-8.4576 35.262-14.636 6.4482-3.468 12.925-7.8352 19.12-12.629 7.0689-5.4704 13.774-11.498 19.656-17.383 5.1528-5.1546 10.569-11.617 15.519-18.374 4.9793-6.7973 9.482-13.886 12.765-20.236 1.5173-2.9341 3.0235-6.1002 4.4587-9.4785 1.2976-3.0545 2.5361-6.2787 3.6713-9.6564l1.4286 0.4781c-1.1521 3.4277-2.4041 6.6885-3.7126 9.7687-1.4498 3.4126-2.9721 6.6121-4.506 9.5787-3.3205 6.4215-7.8666 13.581-12.889 20.437-4.9901 6.8117-10.457 13.334-15.666 18.544-5.9255 5.9278-12.68 12-19.804 17.513-6.2611 4.845-12.807 9.2593-19.326 12.765-11.584 6.2311-23.392 11.086-35.539 14.754-12.145 3.6673-24.636 6.1512-37.589 7.6406-11.348 1.3049-21.712 1.7596-31.691 1.281-9.983-0.4786-19.57-1.8918-29.361-4.3222-12.828-3.1844-26.449-8.1367-39.359-14.369-12.312-5.9432-23.984-13.054-33.712-20.908-5.167-4.1715-10.4-8.9647-15.438-14.13-4.9906-5.1171-9.7878-10.595-14.138-16.191-1.4888-1.9152-2.9224-3.8544-4.3098-5.8218-1.3785-1.9548-2.7046-3.9297-3.9881-5.9304-4.5144-7.0348-8.5154-14.227-12.023-21.655-3.5036-7.4212-6.5168-15.085-9.0584-23.073-2.3475-7.3777-4.0605-14.221-5.3206-21.141-1.2611-6.9253-2.0686-13.913-2.6049-21.577-0.5984-8.5539-0.8455-15.25-0.5196-21.965 0.3262-6.721 1.2259-13.434 2.9195-22.01 1.4236-7.2083 2.9545-14.128 4.8763-20.946 1.924-6.8256 4.2382-13.542 7.226-20.331 3.1436-7.1434 6.4814-13.785 10.245-20.164 3.7645-6.3797 7.9539-12.494 12.8-18.584 4.4989-5.6533 9.1896-11.106 14.189-16.255 5-5.15 10.308-9.9946 16.04-14.431 8.3063-6.4291 15.776-11.692 23.594-16.24 7.8283-4.5537 16.001-8.389 25.704-11.955 11.372-4.1801 20.942-7.0767 30.178-8.972 9.2342-1.8954 18.121-2.7847 28.124-2.9502 13.835-0.2292 25.836 0.2226 37.579 2.0286 11.767 1.8097 23.278 4.9757 36.116 10.171 8.4906 3.436 16.655 7.2625 24.465 11.697 7.808 4.4337 15.26 9.4769 22.325 15.347 5.4463 4.5249 11.436 10.102 17.057 15.964 5.1531 5.3737 10.008 10.999 13.866 16.286 5.0405 6.9084 8.5677 12.317 11.613 17.911 3.0527 5.6067 5.614 11.378 8.7203 19.009 4.3298 10.636 8.7872 22.06 8.8 22.093l0.3997 1.0271h-6.7734l-0.1612-0.5403c-0.4508-1.51-0.9208-2.9849-1.4034-4.4188-0.5246-1.5594-1.0684-3.0878-1.6213-4.5756-3.296-8.8654-7.3721-17.921-12.146-26.563-4.3675-7.9046-9.3158-15.454-14.782-22.181-5.7817-7.1157-12.832-14.668-20.391-21.647-6.8739-6.3467-14.162-12.214-21.289-16.842-10.335-6.7104-22.075-12.896-34.324-17.651-10.963-4.2551-22.336-7.3635-33.475-8.673-13.597-1.5987-27.079-2.0351-40.411-1.0324-13.33 1.0022-26.509 3.4416-39.499 7.5927-12.677 4.0516-23.983 8.7924-34.515 14.773-10.523 5.9749-20.275 13.191-29.854 22.199-5.5138 5.1848-10.411 10.136-14.875 15.175-4.462 5.0364-8.5073 10.178-12.323 15.748-3.6142 5.276-6.8525 10.513-9.7581 15.798-2.9046 5.2828-5.4775 10.616-7.7625 16.087-5.0327 12.051-8.7864 24.41-11.149 37.012-2.309 12.317-3.2905 24.869-2.8407 37.596 0.3239 9.1554 0.901 16.574 2.121 23.864 1.2189 7.2834 3.0817 14.443 5.978 23.086 2.5099 7.4907 5.0738 14.225 8.0947 20.736 3.0182 6.5059 6.4896 12.782 10.815 19.359 11.657 17.722 26.55 33.601 43.679 46.433 16.588 12.427 35.273 21.995 55.146 27.608 14.8 4.1804 30.633 6.3706 46.495 6.5258 15.777 0.1544 31.59-1.7027 46.451-5.6145 13.43-3.5356 26.758-8.5594 39.288-15.061 11.788-6.117 22.871-13.544 32.668-22.274 17.512-15.603 27.086-30.803 27.114-30.848zm28.957-29.368c-0.0103 0.0303-3.6602 10.59-11.008 23.743-4.7422 8.4884-10.63 16.851-17.173 24.69-6.8723 8.2335-14.477 15.901-22.246 22.541-8.9873 7.6814-19.601 14.887-30.8 21.048-11.207 6.1648-23.012 11.289-34.372 14.803-15.864 4.907-32.988 7.6418-50.027 8.3347-17.574 0.7146-35.058-0.7408-50.98-4.2239-14.085-3.0812-28.719-8.6897-42.53-15.901-14.287-7.4602-27.694-16.639-38.699-26.513-11.856-10.637-22.474-23.235-31.418-36.924-9.113-13.948-16.495-29.038-21.682-44.346-3.3088-9.7649-5.7883-19.744-7.4534-29.902-1.678-10.236-2.5286-20.659-2.5674-31.23-0.0272-7.4789 0.4227-14.882 1.3738-22.357 0.9528-7.4877 2.4051-15.035 4.3801-22.789 1.5281-5.9996 3.3723-11.908 5.5558-17.791 2.1767-5.8649 4.7022-11.727 7.5993-17.652 4.234-8.6579 9.1485-16.962 14.688-24.826 5.5337-7.8567 11.696-15.284 18.432-22.198 5.2387-5.3772 10.829-10.495 16.598-15.232 5.8455-4.799 11.868-9.2017 17.888-13.081 11.426-7.3636 22.765-13.368 34.63-18.059 11.866-4.6912 24.266-8.0718 37.815-10.187 10.501-1.6392 20.643-2.3724 30.803-2.2442 10.167 0.1285 20.343 1.1179 30.903 2.923 8.9445 1.5292 18.013 3.8832 26.863 6.8875 9.0846 3.0842 17.941 6.8563 26.196 11.126 7.1711 3.7094 14.379 8.0414 21.294 12.795 6.8145 4.6846 13.348 9.782 19.283 15.1 6.1906 5.5465 11.796 11.292 16.953 17.414 5.1624 6.1279 9.8694 12.623 14.258 19.664 1.3261 2.1268 2.6197 4.2871 3.8844 6.4711 1.247 2.1533 2.4742 4.3471 3.6829 6.5678 2.6462 4.8612 5.2417 10.032 7.5595 15.283 2.0434 4.629 3.8821 9.3443 5.3636 13.996 0.8788 2.7588 1.6949 5.546 2.4586 8.296 0.7566 2.7245 1.4782 5.4717 2.1636 8.1362 0.4413 1.7148 0.8621 3.4457 1.2057 5.0332 0.2962 1.3687 0.5483 2.683 0.7254 3.8653h7.3288c-0.1152-0.6723-0.2275-1.311-0.3373-1.915-0.1161-0.6385-0.2478-1.3372-0.3939-2.0916l-5.0675 1.0345c-1.6805-8.2368-3.3602-16.474-5.0445-24.71l3.7403-0.7637c-0.5345-1.617-1.08-3.2003-1.6364-4.748-0.575-1.6015-1.1815-3.2197-1.8178-4.8529l-4.1395 1.683c-3.1636-7.7897-6.3304-15.578-9.4994-23.366l2.9857-1.2138c-0.6388-1.1702-1.2969-2.3464-1.9735-3.5277-0.7364-1.2863-1.4603-2.5203-2.1701-3.7005l-3.3048 2.2698c-4.7569-6.932-9.5176-13.862-14.279-20.791l3.2162-2.2089c-0.9032-1.1395-1.8208-2.2711-2.7517-3.3935-0.9677-1.1667-1.9281-2.2991-2.8814-3.3973l-2.884 2.8084c-5.8626-6.0253-11.729-12.047-17.596-18.069l2.7432-2.6714c-1.0826-0.9599-2.1949-1.9241-3.3361-2.891-1.1531-0.9768-2.3132-1.9367-3.4799-2.8787l-2.4238 3.295-20.317-14.944 2.1923-2.9804c-1.349-0.8363-2.6862-1.6435-4.0096-2.4203-1.3505-0.7926-2.7341-1.582-4.1506-2.3674l-1.948 3.9943-22.671-11.056 1.8176-3.727c-1.3886-0.5498-2.8026-1.0908-4.2406-1.6223-1.4485-0.5352-2.8983-1.0518-4.3481-1.5488l-1.3525 4.8242-24.286-6.8087 1.2987-4.6322c-1.4508-0.2952-2.8867-0.5712-4.3063-0.8269-1.4095-0.2536-2.8708-0.4989-4.3838-0.7357l-0.168 3.794c-8.3983-0.3743-16.797-0.7448-25.196-1.1153l0.2204-4.9798c-0.7836-0.0214-1.5629-0.0383-2.3376-0.0504-1.0174-0.0159-2.0342-0.0244-3.0485-0.0244-0.7803 0-1.5626 4e-3 -2.3444 0.0128-0.5287 6e-3 -1.0616 0.0141-1.5979 0.0245l0.1771 4.8513-25.202 0.9201-0.1343-3.6781c-1.6497 0.2445-3.3048 0.512-4.9636 0.8017-1.738 0.3035-3.4391 0.6239-5.102 0.9601l1.0732 4.9043-24.64 5.3931-0.8042-3.6741c-1.5976 0.5488-3.1658 1.111-4.704 1.6848-1.6137 0.6022-3.2081 1.2218-4.7805 1.857l1.4815 3.1631-22.838 10.697-1.388-2.9633c-1.2287 0.6894-2.4455 1.3888-3.6492 2.0984-1.1911 0.7019-2.3998 1.4329-3.625 2.1918l2.115 2.8925-20.359 14.887-2.308-3.1562c-1.1183 0.9093-2.2321 1.8346-3.3398 2.7759-1.1322 0.9622-2.2344 1.9195-3.3058 2.8714l2.6859 2.6829-17.822 17.844-2.6092-2.6059c-0.9493 1.0899-1.8797 2.1807-2.7898 3.2721-0.9349 1.1211-1.8575 2.2528-2.767 3.3943l3.4212 2.4734-14.775 20.438-3.0729-2.2213c-0.8037 1.3261-1.6011 2.6785-2.3915 4.0554-0.7919 1.3798-1.5616 2.7578-2.3079 4.1333l3.4212 1.4319-9.7375 23.266-4.2664-1.7855c-0.5751 1.4906-1.1385 3.0069-1.6901 4.5491-0.5393 1.5077-1.0561 3.0091-1.55 4.5027l4.2652 1.0153-5.8405 24.539-4.7805-1.138c-0.2804 1.4553-0.5431 2.9036-0.7866 4.3428-0.2416 1.4256-0.4688 2.862-0.6808 4.3078h3.4814v25.225h-5.5501c-9e-3 0.5005-0.0166 0.9975-0.0219 1.4901-6e-3 0.5499-9e-3 1.2957-9e-3 2.2127 0 1.1972 8e-3 2.2704 0.0232 3.222 0.0128 0.8153 0.0317 1.6367 0.0551 2.4633l4.8486-0.3209 1.6656 25.166-4.199 0.2778c0.2617 1.6707 0.5378 3.3001 0.8277 4.8871 0.2929 1.6022 0.61 3.2197 0.9508 4.8509l5.2425-1.205 5.6496 24.58-4.1497 0.9538c0.5854 1.6838 1.1856 3.3384 1.7999 4.9622 0.6317 1.6694 1.2816 3.3199 1.9493 4.9498l3.905-1.7747 10.435 22.962-3.2941 1.4969c0.695 1.2224 1.3896 2.4147 2.0828 3.5756 0.6881 1.1526 1.3908 2.3021 2.1069 3.4477l3.0782-2.3425 15.273 20.071-3.6361 2.7671c0.9624 1.1743 1.9417 2.3414 2.9369 3.5001 0.9722 1.1319 1.9679 2.2646 2.9864 3.3967l2.9288-3.0461 18.179 17.481-3.0814 3.2048c1.0966 0.944 2.196 1.8697 3.297 2.7761 1.1082 0.9126 2.2255 1.8123 3.3512 2.6986l2.6545-3.6657 20.428 14.794-2.2986 3.1743c1.4284 0.8534 2.8666 1.6878 4.3129 2.5024 1.4407 0.8113 2.8827 1.6001 4.3249 2.3653l1.9883-4.1846 22.78 10.825-1.7636 3.7111c1.4324 0.5357 2.8618 1.0516 4.2867 1.5465 1.3472 0.4687 2.7482 0.9367 4.2007 1.4037l1.0851-4.5033 24.516 5.9077-1.144 4.7481c1.417 0.2642 2.8373 0.5143 4.2604 0.7501 1.4032 0.2325 2.8195 0.4528 4.2476 0.6606l0.0869-3.8748 25.212 0.5652-0.1164 5.2002 0.7295 8e-3 1.4079 2e-3v3e-3c1.3498 0 2.7024-0.0134 4.055-0.0401 1.077-0.0214 2.162-0.0524 3.2539-0.0922l-0.2038-4.9717c8.3998-0.3423 16.8-0.6851 25.199-1.0317l0.1418 3.467c1.104-0.1838 2.1961-0.3755 3.2756-0.5745 1.0589-0.1952 2.118-0.3999 3.1764-0.6133l-1.1707-3.7693 24.085-7.4804 1.4473 4.6602c1.4767-0.505 2.9691-1.0365 4.4765-1.5931 1.4599-0.539 2.8968-1.0891 4.3091-1.649l-1.847-4.0469c7.6487-3.4882 15.296-6.9799 22.942-10.472l1.6994 3.7232c1.3297-0.7373 2.6268-1.476 3.8917-2.216 1.2576-0.7357 2.5316-1.5009 3.8204-2.2948l-2.5013-3.6089c6.9106-4.7866 13.82-9.5762 20.728-14.367l2.3731 3.424c1.2083-0.9728 2.4037-1.9581 3.5855-2.955 1.1614-0.9798 2.3205-1.9802 3.4763-3.0011l-2.9696-2.9205 17.685-17.981 3.0359 2.9857c0.9825-1.1304 1.9457-2.2635 2.8882-3.3982 0.9382-1.1289 1.8898-2.3022 2.854-3.5175l-3.9129-2.7708 14.572-20.58 3.7318 2.6424c0.6642-1.0994 1.3181-2.2066 1.9611-3.3199 0.6556-1.1349 1.2924-2.2618 1.9092-3.3799l-4.7995-2.3031c3.6381-7.5779 7.2754-15.156 10.909-22.736l10.67 5.1199c-3.6348 7.5796-7.2703 15.159-10.91 22.736l-0.6773-0.3249-3.8327-1.8392c-0.6526 1.1843-1.3073 2.3457-1.9644 3.4829-0.666 1.1536-1.3432 2.2999-2.0319 3.4381l4.6919 3.3222c-4.8553 6.8616-9.7135 13.721-14.572 20.58l-0.613-0.434-3.898-2.7603c-0.9373 1.1808-1.9138 2.383-2.9306 3.6063-0.9846 1.1853-1.9749 2.3503-2.9696 3.494l4.3277 4.2562-17.685 17.981-0.5372-0.5282-3.854-3.7902c-1.1732 1.0367-2.3671 2.0674-3.5806 3.0913-1.2226 1.0314-2.456 2.0474-3.6983 3.0466l3.5079 5.0612-20.728 14.367-0.4297-0.6201-2.9507-4.2572c-1.2725 0.7833-2.5789 1.5677-3.9194 2.3517-1.3566 0.7937-2.6986 1.5586-4.0252 2.2939l2.5867 5.6674-22.942 10.472-0.3123-0.6846-2.1283-4.6629c-1.4803 0.5881-2.9528 1.1528-4.4164 1.6933-1.4838 0.5481-3.0001 1.0871-4.5488 1.6156l1.6162 5.2042-24.085 7.4801-0.2239-0.7214-1.6669-5.3666c-1.1118 0.2249-2.2301 0.4415-3.354 0.6485-1.1676 0.2151-2.3298 0.4189-3.4849 0.6103l0.2801 6.8419-25.199 1.0317-0.0307-0.7539-0.1884-4.5956c-1.0836 0.0393-2.179 0.0702-3.2857 0.0924-1.3528 0.0267-2.7152 0.0403-4.0847 0.04v3e-3l-1.414-8e-3 -0.7571-8e-3 -0.1149 5.1267-25.212-0.565 0.0168-0.7503 0.1275-5.6881c-1.4853-0.2151-2.9709-0.4458-4.4554-0.6919-1.4669-0.2428-2.9248-0.4997-4.3723-0.7702l-1.2747 5.2896-24.516-5.9077 0.1758-0.7292 1.1569-4.8004c-1.4067-0.4526-2.8538-0.9375-4.3391-1.4533h-3e-3c-1.4999-0.5209-2.9804-1.0554-4.4406-1.6022l-2.6676 5.6133-22.78-10.825 0.3227-0.6788 2.1218-4.4652c-1.4934-0.7914-2.9656-1.5959-4.4151-2.4122-1.5027-0.8463-2.991-1.7105-4.4637-2.5916l-3.7562 5.1871-20.428-14.794 0.4428-0.6113 2.9625-4.0912c-1.1528-0.9072-2.2943-1.8263-3.4234-2.7557-1.1476-0.9448-2.2767-1.8959-3.3867-2.8517l-4.0769 4.2398-18.179-17.481 0.5224-0.5431 3.7046-3.8529c-1.0305-1.1445-2.0584-2.3139-3.0832-3.5071-1.007-1.1727-2.005-2.3623-2.9915-3.567l-4.5844 3.4885-15.273-20.071 0.5992-0.4557 4.5388-3.4539c-0.7416-1.1843-1.4738-2.3815-2.1956-3.5907-0.7499-1.2556-1.4735-2.4966-2.1697-3.722l-6.1036 2.7739-10.435-22.962 0.6889-0.3128 4.8106-2.1863c-0.6887-1.6785-1.3511-3.3595-1.9876-5.0422-0.6531-1.7271-1.2767-3.4452-1.8694-5.1531l-5.9062 1.3576-5.6497-24.581 4.8236-1.1085c-0.3365-1.6103-0.6574-3.25-0.9619-4.9174-0.3134-1.7145-0.6-3.4013-0.8589-5.0583l-6.1004 0.4037-1.6656-25.166 0.7551-0.0499 4.705-0.3116c-0.0237-0.8375-0.0431-1.684-0.0569-2.5391-0.0192-1.1999-0.0293-2.2835-0.0293-3.2457 0-0.5629 5e-3 -1.2971 0.0149-2.2243 5e-3 -0.4969 0.0126-0.9898 0.0214-1.4785h-4.7851v-25.225h6.8351c0.2212-1.5188 0.4604-3.0378 0.7176-4.5556 0.2541-1.5007 0.5226-2.9827 0.8045-4.4449l-5.268-1.2538 5.8405-24.538 0.734 0.1746 5.046 1.2009c0.5199-1.578 1.0538-3.1313 1.6004-4.6599 0.5481-1.5329 1.1218-3.0751 1.7203-4.6241l-5.2614-2.2019 9.7374-23.267 0.694 0.2902 5.4067 2.263c0.7886-1.4568 1.5875-2.8897 2.3956-4.2974 0.7991-1.3921 1.6253-2.79 2.4764-4.1922l-5.2929-3.826 14.775-20.438 0.609 0.4401 4.3405 3.1378c0.931-1.1689 1.8747-2.3273 2.8308-3.4738 0.9557-1.1463 1.9153-2.2719 2.8787-3.3767l-4.6977-4.6914 17.822-17.845 0.5319 0.5312 4.0897 4.0847c1.142-1.0163 2.2752-2.0022 3.3986-2.9568 1.1248-0.9558 2.2661-1.9039 3.4232-2.8434l-3.7882-5.1808 20.359-14.887 0.4446 0.6078 3.5345 4.8339c1.2163-0.7538 2.4687-1.5102 3.7562-2.2691 1.2526-0.7382 2.5095-1.4609 3.7703-2.1674l-2.9915-6.3865 22.838-10.697 0.3196 0.6818 2.5802 5.5085c1.6316-0.6602 3.2633-1.2954 4.8939-1.9039 1.6465-0.6143 3.2819-1.2002 4.905-1.7568l-1.4027-6.409 24.64-5.3928 0.162 0.7395 0.974 4.4503c1.7437-0.3536 3.4655-0.6793 5.1641-0.976 1.7027-0.2972 3.426-0.5748 5.1682-0.8312l-0.242-6.6326 25.202-0.9198 0.0277 0.7534 0.172 4.7183c0.542-0.0106 1.0896-0.0189 1.6412-0.0252 0.7821-8e-3 1.5682-0.0131 2.356-0.0128 1.0274 2e-4 2.051 9e-3 3.0691 0.0244h3e-3c0.7997 0.0123 1.5936 0.0295 2.3805 0.0511l0.2365-5.3404 25.195 1.1153-0.0332 0.7515-0.2552 5.7614c1.4841 0.2317 3.0125 0.4894 4.5824 0.772 1.5107 0.272 2.994 0.5569 4.4488 0.8533l1.4891-5.3112c8.0955 2.2681 16.191 4.5365 24.285 6.8086l-0.2035 0.7262-1.2317 4.3934c1.5019 0.5138 2.9887 1.043 4.4597 1.5866 1.4515 0.5362 2.9131 1.0969 4.3838 1.6807l2.7094-5.5561 22.671 11.056-0.3307 0.6783-2.2492 4.6118c1.4047 0.7786 2.8217 1.5881 4.2504 2.4263 1.4163 0.8315 2.7988 1.6652 4.1446 2.4999l3.9247-5.3362c6.7738 4.979 13.547 9.9598 20.317 14.944l-0.4458 0.6062-3.2501 4.4189c1.2027 0.9705 2.3895 1.9518 3.5599 2.9431 1.1395 0.9652 2.2876 1.9621 3.4432 2.989l4.6556-4.5337 17.596 18.068-0.5402 0.5259-3.9754 3.8713c1.0216 1.1747 2.01 2.3379 2.9638 3.488 0.9562 1.1525 1.9014 2.3192 2.8356 3.4992l5.2952-3.6365 14.279 20.791-0.6234 0.4279-4.5874 3.1507c0.7874 1.306 1.5342 2.5747 2.2382 3.8043 0.6942 1.2123 1.3843 2.4477 2.0691 3.7056l6.5754-2.6734c3.1669 7.7884 6.3359 15.576 9.499 23.366l-0.6997 0.2844-4.7305 1.9233c0.6234 1.6014 1.2362 3.2396 1.8374 4.9133 0.5992 1.6671 1.169 3.3184 1.7077 4.9521l6.3682-1.3002 5.0447 24.71-0.738 0.1506-4.313 0.8805c0.1256 0.6544 0.2579 1.3629 0.3969 2.1281 0.1821 1.002 0.3463 1.9399 0.4919 2.8127l-0.7705 0.1284v0.7506h-9.5092l-0.0861-0.6581c-0.1658-1.2672-0.4504-2.7812-0.8005-4.3995-0.3589-1.6583-0.7702-3.357-1.1881-4.9803-0.6697-2.6036-1.3835-5.3198-2.1575-8.1066-0.767-2.7615-1.5788-5.5369-2.4409-8.243-1.4554-4.5693-3.2769-9.236-5.3103-13.842-2.3112-5.2357-4.8848-10.366-7.5005-15.171-1.1806-2.1691-2.4004-4.3481-3.6653-6.5326-1.2473-2.1538-2.5323-4.2992-3.8607-6.4298-4.3617-6.9968-9.0257-13.436-14.128-19.492-5.1077-6.0631-10.664-11.757-16.805-17.26-5.8822-5.2704-12.365-10.328-19.135-14.982-6.8577-4.7141-14.01-9.0121-21.129-12.695-8.1869-4.235-16.973-7.9768-25.99-11.038-8.7738-2.9786-17.765-5.3127-26.632-6.8285-10.5-1.7949-20.598-2.7782-30.667-2.9054-10.077-0.1269-20.137 0.6002-30.555 2.2266-13.419 2.0948-25.713 5.448-37.49 10.104-11.777 4.6561-23.031 10.616-34.371 17.924-5.983 3.8557-11.958 8.2227-17.747 12.975-5.72 4.6964-11.268 9.7767-16.474 15.12-6.6772 6.8535-12.789 14.22-18.279 22.015-5.5017 7.8111-10.376 16.046-14.569 24.62-2.857 5.8423-5.3609 11.659-7.5343 17.516-2.1671 5.8384-3.9957 11.696-5.509 17.637-1.9663 7.7204-3.4088 15.207-4.3503 22.606-0.9433 7.4118-1.3891 14.752-1.3622 22.168 0.0386 10.48 0.8831 20.822 2.5498 30.988 1.6507 10.07 4.1105 19.968 7.3945 29.659 5.146 15.185 12.471 30.158 21.517 44.003 8.8796 13.592 19.41 26.09 31.158 36.629 10.915 9.7926 24.216 18.898 38.393 26.301 13.687 7.1466 28.191 12.705 42.153 15.759 15.809 3.4582 33.164 4.904 50.602 4.1947 16.911-0.6876 33.904-3.4013 49.644-8.2698 11.255-3.4811 22.963-8.5649 34.089-14.685 11.115-6.1143 21.642-13.26 30.546-20.871 7.7017-6.5824 15.245-14.189 22.069-22.364 6.4908-7.7764 12.324-16.059 17.014-24.454 7.2888-13.047 10.892-23.472 10.902-23.502zm-179.68 86.33v-0.71h-4.7365v0.71zm-6.2477 0v-0.71h-2.6644v-1.4211h-6.9303v4.1567h6.9303v-2.0256h0.7557zm-2.6644 3.5368h-6.9303v2.7102h6.9303zm0-11.832h-6.9303v4.6531h6.9303zm11.218 9.8067h-9.7069v5.9581h9.7069zm0-11.218h-9.7069v7.4854h9.7069zm-2.2567-307.53v-0.8768h-4.7552v0.8768zm-6.2755 0v-0.8768h-2.6872v-1.3888h-6.9301v3.3479h6.9301v-1.0823h0.7556zm-9.6173 7.4136h6.9301v-4.8201h-6.9301zm0-11.19h6.9301v-4.6805h-6.9301zm19.758-5.9301h-11.317v7.319h11.317zm0 11.218h-11.317v7.319h11.317zm37.797 37.781v3.9264h4.8277v-2.2771c-1.2067-0.4277-2.4364-0.8511-3.691-1.2725-0.3775-0.1267-0.7566-0.2524-1.1367-0.3768zm-1.7132 11.701h9.6513v-6.2636h-9.6513zm-120.61 91.904h-5.9304v4.6415h5.9304zm-2.6547-55.908c-10.22 12.288-18.251 34.364-19.384 37.564l9.7251 11.944h33.008v-3.5985h-22.945c-4.5463-4.3554-9.0931-8.7106-13.643-13.062l0.196-0.4753c0.0216-0.0531 7.2827-17.911 19.388-32.373zm8.3229 0c-11.291 13.097-18.514 29.501-19.774 32.472l12.457 11.927h22.344v-5.9671h-12.79c-4.4076-4.9531-8.8151-9.9065-13.226-14.856l11.226-16.254h14.791v-7.3208zm21.528 183.51h-18.282c2.4608 2.0883 8.2393 6.4895 18.279 11.442v-3.1109h2.5386v-4.539h-2.5353zm7.5058 8.3314v-4.539h-3.4537v4.539zm1.3762 1.5178h-7.3675v6.0344h7.3675zm3e-3 -12.443h-7.3741v4.8753h7.3741zm92.37-0.0108h-8.0408v4.8753h8.0408zm171.64-120.29h-17.338v6.027h17.338zm0 13.773h-17.338v6.027h17.338zm0 13.773h-17.338v6.027h17.338zm-95.629 11.915h22.562v6.7314h-23.31v-6.7314zm21.066 1.5113h-20.318v3.7088h20.318zm39.644-13.551h-28.366v32.032h28.366zm-76.104-70.929h8.0363l0.0769 0.6731c0.0979 0.8606 0.2629 1.9041 0.5364 3.0756 0.2202 0.9427 0.5106 1.9656 0.8922 3.0373l0.0443 0.1247v1.0967h-10.342v-8.0074zm6.6986 1.5113h-5.9429v4.9848h7.094c-0.2735-0.843-0.4934-1.6492-0.67-2.4049-0.2201-0.9435-0.374-1.813-0.4811-2.5799zm-6.6986 8.4849h10.914l0.2136 0.4042c0.2954 0.5599 0.6224 1.1294 0.9823 1.7047 0.341 0.5451 0.7088 1.0896 1.104 1.6291l0.1475 0.2015v8.6219h-14.118v-12.561zm10.012 1.5112h-9.2558v9.539h11.095v-6.6238c-0.3655-0.508-0.7055-1.0161-1.0213-1.5206-0.2899-0.4634-0.5625-0.9289-0.8179-1.3946zm-13.677 12.149h16.972v9.0085h-17.728v-9.0085zm15.461 1.5113h-14.705v5.986h14.705zm-15.461 8.3186h16.972v9.0085h-17.728v-9.0085zm15.461 1.5112h-14.705v5.9861h14.705zm0 11.107h-14.705v5.986h14.705zm-188.34 65.674v-3.6665h-3.626v3.6665zm-18.447-5.1778h5.9304v-4.612h-5.9304zm1e-3 -17.052v2.2651h5.9274v-2.2651zm-9e-3 -11.107v0.9319h5.9455v-0.9319zm0-13.717v3.5426h5.9455v-3.5426zm0-11.107v0.9322h5.9455v-0.9322zm19.879-38.369v4.5649h6.754v-28.088h-6.7561v3.3968h2.3601v9.1309h-2.3593v1.8649h2.3593v9.1309zm-1.5153 4.5649v-4.5649h-7.4361v-9.1309h2.4115v-1.8649h-2.4115v-9.1309h2.4122v-3.3968h-0.71l-10.099 14.623 11.987 13.465zm-3.5119-15.561v1.8649h3.5131v-1.8649zm-7e-4 -12.528v3.3968h3.5146v-3.3968zm5.8787 4.9196h-8.295v6.0853h8.295zm0 10.996h-8.295v6.0853h8.295zm-7.2746 85.684h-20.98v7.1522h20.98zm0-12.44h-20.98v7.1522h20.98zm0-11.107h-20.98v7.1522h20.98zm0-13.717h-20.98v7.1522h20.98zm0-11.107h-20.98v7.1522h20.98zm59.569 151.04h21.06v-4.7644h-21.059zm0-6.2757h21.06v-3.4305h-21.059zm0-4.9417h21.06v-5.1531h-21.059zm0-6.6644h21.06v-5.486h-21.059zm0-6.9973h21.06v-4.0423h-21.059zm0-5.5535h21.06v-3.9859h-21.059zm0-5.4972h21.06v-4.2171h-21.059zm20.93-245.2h-20.994v4.5977h20.994zm0 6.109h-20.994v5.8742h20.994zm0 7.3854h-20.994v4.6531h20.994zm0 6.1644h-20.994v6.0417h20.994zm-25.47 43.511v62.918h24.972c4.374 0 8.2418-0.0481 12.048-0.5271 3.8064-0.4793 7.6071-1.3916 11.888-3.1212 7.3096-2.9535 13.563-8.3801 17.263-15.088 3.392-6.1495 4.6335-13.379 2.5636-20.761-1.3233-4.7199-3.5688-8.6509-6.5034-11.834-3.1451-3.4114-7.0882-5.9707-11.541-7.7282-3.9902-1.575-8.3108-2.5394-12.611-3.1099-4.3073-0.5713-8.6173-0.7483-12.565-0.7483zm10.065 7.1217c0.8604 0 1.6395 0.3491 2.2032 0.9128 0.3929 0.3929 0.6815 0.8906 0.8203 1.4475h20.745c0.8087 0 1.6336 0.0345 2.4716 0.1141 0.8236 0.0783 1.6435 0.2025 2.4515 0.3831 1.7135 0.3828 3.3414 1.0609 4.8357 1.9596 1.573 0.9458 3.0011 2.1353 4.2285 3.4804 0.9667 1.0596 1.7767 2.1003 2.3973 3.2491 0.5332 0.9864 0.9216 2.0457 1.1425 3.254h6.58v12.591h-6.2468v2.3595c0 1.0438-0.0322 1.9067-0.1745 2.7858-0.1421 0.8795-0.3929 1.7419-0.8284 2.7693-0.2594 0.6126-0.5564 1.2088-0.872 1.7775-0.3181 0.5733-0.6526 1.116-0.9861 1.6203-0.3388 0.5123-0.702 1.0095-1.0755 1.4578-0.3503 0.4209-0.7047 0.7914-1.0495 1.0828-0.4433 0.3748-0.9274 0.7033-1.4619 0.9864-0.5222 0.2765-1.0982 0.511-1.7382 0.705-2.2351 0.6775-4.674 0.6775-6.8432 0.6775h-13.424v3.5907h-3.6376v4.0857h5.369c4.1322 0 7.7753-0.0496 11.343-0.4917 3.5515-0.4398 7.0452-1.2692 10.904-2.8285 3.7665-1.5218 7.2847-3.8376 10.198-6.7414 2.7875-2.7787 5.0188-6.0961 6.3794-9.7705 0.8438-2.2787 1.3211-4.6092 1.4209-6.9491 0.0992-2.3269-0.1721-4.6723-0.8229-6.9941-1.1095-3.9572-2.9832-7.3033-5.5135-10.037-2.611-2.8215-5.9329-5.005-9.846-6.5495-3.6089-1.4243-7.5459-2.3101-11.543-2.8396-4.0058-0.5304-8.0925-0.704-11.979-0.704h-21.007v53.906h9.8639v-4.0857h-1.6984c-0.1551 0.3353-0.368 0.6383-0.6259 0.8962-0.5637 0.5637-1.3427 0.9128-2.2031 0.9128-0.8599 0-1.6395-0.3491-2.2032-0.9128s-0.9128-1.3432-0.9128-2.2031c0-0.8604 0.3491-1.6395 0.9128-2.2032 0.2839-0.2838 0.6222-0.5128 0.9979-0.6707-0.3757-0.1579-0.714-0.3871-0.9979-0.671-0.5637-0.5637-0.9128-1.3433-0.9128-2.2032 0-0.8604 0.3491-1.6394 0.9128-2.2031 0.4204-0.4204 0.9612-0.7216 1.5657-0.8473-0.6045-0.1257-1.1453-0.4269-1.5657-0.8473-0.5637-0.5637-0.9128-1.3432-0.9128-2.2031 0-0.8604 0.3491-1.6395 0.9128-2.2032 0.3957-0.3957 0.898-0.6858 1.4596-0.8233-0.5616-0.1376-1.0639-0.428-1.4596-0.8237-0.5637-0.5637-0.9128-1.3432-0.9128-2.2031 0-0.8604 0.3491-1.6395 0.9128-2.2032 0.3285-0.3284 0.7302-0.5838 1.1783-0.74-0.4481-0.1561-0.8498-0.4118-1.1783-0.7402-0.5637-0.5637-0.9128-1.3433-0.9128-2.2032 0-0.8604 0.3491-1.6394 0.9128-2.2031s1.3433-0.9128 2.2032-0.9128c0.8604 0 1.6394 0.3491 2.2031 0.9128 0.3388 0.3388 0.6 0.7551 0.7546 1.2203h7.6739v-2.2865h-4.8927v-1.1153h-5.6271v-10.361h5.6271v-1.1153h12.591v12.591h-6.1873v2.2865h13.4v-2.2865h-6.254v-12.591h12.592v12.591h-4.8264v3.7978h-23.983c-0.1109 0.6486-0.4224 1.2291-0.868 1.6747-0.3284 0.3284-0.7297 0.5841-1.178 0.7402 0.4483 0.1562 0.8496 0.4116 1.178 0.74 0.4448 0.4449 0.7561 1.0239 0.8675 1.6712h13.835v-2.385h-12.684v-1.5112h31.284v-8.7667h4.4766c-0.1977-0.9302-0.5146-1.7604-0.936-2.5397-0.5526-1.0228-1.2933-1.9706-2.1847-2.9479-1.1342-1.2432-2.447-2.3381-3.8859-3.2033-1.3632-0.8196-2.8407-1.4367-4.3874-1.7823-0.7418-0.1657-1.5007-0.2803-2.2681-0.3534-0.7531-0.0715-1.5339-0.1025-2.3301-0.1025h-20.745c-0.1388 0.5569-0.4274 1.0546-0.8203 1.4475-0.5637 0.5637-1.3428 0.9128-2.2032 0.9128-0.8599 0-1.6394-0.3491-2.2031-0.9128-0.5637-0.5636-0.9128-1.3432-0.9128-2.2031 0-0.8604 0.3491-1.6394 0.9128-2.2031s1.3432-0.9128 2.2031-0.9128zm8.0265 51.29v-4.0857h-2.21v4.0857zm32.091-23.898h-4.8335v-2.3135h-17.089v2.385h17.243v7.6346h-25.896v4.472h3.6338v2.5326h13.424c2.074 0 4.4058-3e-4 6.4065-0.6065 0.5374-0.163 1.0251-0.362 1.4722-0.5987 0.4344-0.2303 0.8286-0.4977 1.1903-0.8035 0.2854-0.2411 0.5778-0.5471 0.8667-0.8939 0.3257-0.3907 0.6561-0.8453 0.9753-1.3279 0.3208-0.4851 0.6364-0.9962 0.9271-1.52 0.2932-0.5282 0.5662-1.0756 0.801-1.6299 0.3851-0.9088 0.6055-1.6621 0.7281-2.4213 0.1229-0.7596 0.1509-1.5608 0.1509-2.5495zm-25.597 1.5828v4.612h3.0804v-4.612zm-1.5113 4.612v-4.612h-10.272c-0.1544 0.4664-0.4161 0.8843-0.7556 1.2238-0.3957 0.3957-0.8977 0.6861-1.4594 0.8237 0.5617 0.1375 1.0637 0.4276 1.4594 0.8233 0.4609 0.461 0.778 1.0657 0.8785 1.7412zm-4.9858 1.5113h-2.2024v4.472h2.2024zm-3.7212 0h-1.5891c-0.1566 0.4382-0.409 0.8314-0.7314 1.1538-0.4204 0.4204-0.9609 0.7216-1.5654 0.8473 0.6045 0.1257 1.145 0.4269 1.5654 0.8473 0.434 0.434 0.7408 0.9957 0.8589 1.6236h1.4616zm-1.7452 9.3881v-2.9253c-0.1496 0.2939-0.3446 0.5612-0.5753 0.7919-0.2839 0.2839-0.6221 0.5131-0.9979 0.671 0.3758 0.1579 0.714 0.3869 0.9979 0.6707 0.2307 0.2307 0.4257 0.4977 0.5753 0.7917zm9.1077-3.4049h-7.5965v4.6121h7.5965zm22.277-12.106h-14.845v4.612h14.845zm-28.424-20.107h-4.138v7.3524h4.138zm40.847 7.4441h-9.5689v9.569h9.5689zm-16.216-8.5523h-9.5689v9.5689h9.5689zm-13.55 0h-9.569v9.5689h9.569zm-15.684 37.004c-0.2902-0.2902-0.6917-0.47-1.1347-0.47-0.4431 0-0.8446 0.1798-1.1347 0.47-0.2902 0.2901-0.47 0.6916-0.47 1.1347 0 0.443 0.1798 0.8445 0.47 1.1346 0.2901 0.2902 0.6916 0.47 1.1347 0.47 0.443 0 0.8445-0.1798 1.1347-0.47 0.2901-0.2901 0.47-0.6916 0.47-1.1346 0-0.4431-0.1799-0.8446-0.47-1.1347zm0-5.748c-0.2902-0.2902-0.6917-0.47-1.1347-0.47-0.4431 0-0.8446 0.1798-1.1347 0.47-0.2902 0.2901-0.47 0.6916-0.47 1.1346 0 0.4431 0.1798 0.8446 0.47 1.1347 0.2901 0.2902 0.6916 0.47 1.1347 0.47 0.443 0 0.8445-0.1798 1.1347-0.47 0.2901-0.2901 0.47-0.6916 0.47-1.1347 0-0.443-0.1799-0.8445-0.47-1.1346zm0-6.1009c-0.2902-0.2902-0.6917-0.47-1.1347-0.47-0.4431 0-0.8446 0.1798-1.1347 0.47-0.2902 0.2901-0.47 0.6916-0.47 1.1347 0 0.443 0.1798 0.8445 0.47 1.1347 0.2901 0.2901 0.6916 0.47 1.1347 0.47 0.443 0 0.8445-0.1799 1.1347-0.47 0.2901-0.2902 0.47-0.6917 0.47-1.1347 0-0.4431-0.1799-0.8446-0.47-1.1347zm0-6.0533c-0.2902-0.2902-0.6917-0.47-1.1347-0.47-0.4431 0-0.8446 0.1798-1.1347 0.47-0.2902 0.2902-0.47 0.6916-0.47 1.1347 0 0.443 0.1798 0.8445 0.47 1.1347 0.2901 0.2901 0.6916 0.47 1.1347 0.47 0.443 0 0.8445-0.1799 1.1347-0.47 0.2901-0.2902 0.47-0.6917 0.47-1.1347 0-0.4431-0.1799-0.8445-0.47-1.1347zm0-5.8865c-0.2902-0.2902-0.6917-0.47-1.1347-0.47-0.4431 0-0.8446 0.1798-1.1347 0.47-0.2902 0.2901-0.47 0.6916-0.47 1.1346 0 0.4431 0.1798 0.8446 0.47 1.1347 0.2901 0.2902 0.6916 0.47 1.1347 0.47 0.443 0 0.8445-0.1798 1.1347-0.47 0.2901-0.2901 0.47-0.6916 0.47-1.1347 0-0.443-0.1799-0.8445-0.47-1.1346zm0.2221-18.993c-0.2902-0.2901-0.6916-0.47-1.1347-0.47-0.443 0-0.8445 0.1799-1.1347 0.47-0.2901 0.2902-0.47 0.6917-0.47 1.1347 0 0.4431 0.1799 0.8445 0.47 1.1347 0.2902 0.2902 0.6917 0.47 1.1347 0.47 0.4431 0 0.8445-0.1798 1.1347-0.47s0.47-0.6916 0.47-1.1347c0-0.443-0.1798-0.8445-0.47-1.1347zm-8.2045 50.065v-56.173h22.518c3.9224 0 8.0678 0.1778 12.174 0.7216 4.1159 0.5453 8.1731 1.4586 11.897 2.9283 4.1194 1.6258 7.628 3.937 10.401 6.9333 2.6958 2.9132 4.6881 6.4641 5.8621 10.651 0.6931 2.4726 0.9818 4.9742 0.8758 7.4605-0.1071 2.5069-0.6139 4.9921-1.509 7.4096-1.4387 3.8852-3.794 7.3887-6.7341 10.32-3.0552 3.0454-6.7467 5.4748-10.7 7.0719-3.9997 1.616-7.6136 2.4751-11.282 2.9293-3.6522 0.4523-7.3439 0.5032-11.526 0.5032h-21.976zm-4.5093 4.5078v-65.186l1.0284-1e-3v-3e-3h25.999c3.9811 0 8.3486 0.1813 12.76 0.7664 4.4186 0.5864 8.8599 1.578 12.966 3.1986 4.6617 1.8399 8.7962 4.5264 12.102 8.1126 3.0915 3.3534 5.4558 7.4889 6.8464 12.449 2.1855 7.7945 0.8798 15.418-2.6935 21.897-3.8665 7.0104-10.396 12.68-18.026 15.762-4.4046 1.7797-8.328 2.7202-12.266 3.2159-3.9375 0.4954-7.836 0.5453-12.232 0.5453h-26.485zm1.2661 17.938v69.351h30.395c5.2896 0 9.9709-0.0534 14.612-0.5839 4.6319-0.5297 9.2518-1.5364 14.447-3.4433 8.8884-3.2623 16.487-9.2491 20.979-16.646 4.1091-6.7676 5.6133-14.723 3.1056-22.847-1.6044-5.1979-4.3289-9.5284-7.8899-13.037-3.8262-3.7693-8.6224-6.5976-14.038-8.5393-4.8355-1.7336-10.085-2.797-15.318-3.4277-5.2412-0.6315-10.466-0.8272-15.242-0.8272zm10.479 7.2308c0.8604 0 1.6394 0.3491 2.2031 0.9128 0.393 0.3929 0.6816 0.8906 0.8204 1.4475h35.347c2.0347 0 4.0492 0.1955 6.0067 0.6473 1.9679 0.4544 3.8711 1.1667 5.67 2.1974 1.2039 0.6896 2.3273 1.5251 3.1799 2.5248 0.6176 0.7243 1.0926 1.5324 1.3553 2.43h6.2671v17.396h-5.6339l-2e-4 5.8321c0.0136 2.8039 0.0221 4.5912-1.4204 7.5273-0.7732 1.5737-1.8114 3.0751-2.9864 4.3989-1.2284 1.3841-2.6082 2.5792-3.9922 3.4651-1.8999 1.216-4.0426 2.0953-6.2427 2.7469-2.1785 0.6453-4.4106 1.0672-6.515 1.3727-2.3449 0.3405-4.6269 0.5481-6.9147 0.6697-2.3031 0.123-4.5707 0.1597-6.8943 0.1597h-6.5802v2.4812h-10.453v-10.451h5.9118v-2.1552h-6.1601v-2.1896c-0.1532 0.4776-0.4184 0.905-0.7645 1.2511-0.5637 0.5637-1.3427 0.9128-2.2031 0.9128-0.8599 0-1.6394-0.3491-2.2031-0.9128s-0.9128-1.3428-0.9128-2.2032c0-0.8599 0.3491-1.6394 0.9128-2.2031s1.3432-0.9128 2.2031-0.9128c0.8604 0 1.6394 0.3491 2.2031 0.9128 0.3461 0.3461 0.6113 0.7738 0.7645 1.2513v-4.3833c-0.1532 0.4775-0.4184 0.9049-0.7645 1.251-0.5637 0.5637-1.3427 0.9128-2.2031 0.9128-0.8599 0-1.6394-0.3491-2.2031-0.9128s-0.9128-1.3427-0.9128-2.2031c0-0.8599 0.3491-1.6395 0.9128-2.2032s1.3432-0.9128 2.2031-0.9128c0.8604 0 1.6394 0.3491 2.2031 0.9128 0.3461 0.3461 0.6113 0.7738 0.7645 1.2513v-1.0143h12.23v11.395h-4.5592v2.1552h3.0305v2.7367h4.0519v3e-3c1.8103 2e-4 3.6462 5e-4 5.4866-0.1023 1.6498-0.0922 3.7844-0.3405 5.9414-0.8254 1.6685-0.3753 3.35-0.8924 4.8249-1.588 1.3493-0.6358 2.3712-1.2848 3.1006-2.1296 0.7151-0.8279 1.1755-1.8803 1.4244-3.3437 0.1125-0.6621 0.1879-1.3601 0.2372-2.0283 0.0645-0.8795 0.0834-1.72 0.0834-2.3643v-10.727h-5.8057v-13.729h6.1089v-1.4901h-36.019c-0.0665 0.7491-0.3982 1.4221-0.9005 1.9243-0.5637 0.5637-1.3427 0.9128-2.2031 0.9128-0.8599 0-1.6394-0.3491-2.2031-0.9128s-0.9128-1.3427-0.9128-2.2031c0-0.8599 0.3491-1.6395 0.9128-2.2032 0.5637-0.5636 1.3432-0.9127 2.2031-0.9127 0.8604 0 1.6394 0.3491 2.2031 0.9127 0.2769 0.2769 0.5018 0.6058 0.6592 0.9708h37.772v3.0013h6.1087v13.729h-6.412v10.727c0 0.6571-0.0201 1.5276-0.0894 2.4706-0.0521 0.7085-0.133 1.4533-0.2549 2.1699-0.2979 1.7528-0.8715 3.0383-1.7724 4.0816-0.8866 1.0269-2.0659 1.786-3.5968 2.5074-1.5805 0.7453-3.369 1.2967-5.1377 1.6944-2.2507 0.5057-4.4733 0.7646-6.1893 0.8606-1.8409 0.103-3.7179 0.1028-5.5692 0.1023v3e-3h-4.0519v2.2107h6.5802c2.3455 0 4.6018-0.0355 6.8178-0.1537 2.2318-0.1188 4.4677-0.3224 6.7786-0.6581 2.0455-0.297 4.2083-0.705 6.3024-1.3254 2.0727-0.6138 4.0839-1.4374 5.8533-2.5701 1.2763-0.8168 2.548-1.9182 3.6794-3.193 1.0898-1.2281 2.0505-2.6154 2.7618-4.063 1.2878-2.6209 1.2795-4.271 1.2672-6.8597-3e-3 -0.5733-6e-3 -0.3831-6e-3 -0.8584v-4.9798h-6.5853v-17.396h5.8667c-0.2121-0.5198-0.5224-1.0029-0.9038-1.4503-0.7259-0.851-1.7132-1.5802-2.7844-2.1938-1.6697-0.9566-3.4341-1.6173-5.2569-2.0381-1.8326-0.4229-3.7353-0.606-5.6702-0.606h-35.347c-0.1388 0.5569-0.4274 1.0546-0.8204 1.4475-0.5637 0.5637-1.3427 0.9128-2.2031 0.9128-0.8599 0-1.6394-0.3491-2.2031-0.9128s-0.9128-1.3428-0.9128-2.2032c0-0.8599 0.3491-1.6394 0.9128-2.2031s1.3432-0.9128 2.2031-0.9128zm10.795 27.372v-1.9827h-5.881v-13.729h13.729v13.729h-6.3366v1.9827h15.483v-1.9827h-8.6579v-13.729h13.729v13.729h-3.5597v3.494h-26.416c-0.1582 0.3856-0.3912 0.7327-0.6811 1.0226-0.5637 0.5637-1.3427 0.9128-2.2031 0.9128-0.8599 0-1.6394-0.3491-2.2031-0.9128s-0.9128-1.3428-0.9128-2.2032c0-0.8599 0.3491-1.6394 0.9128-2.2031s1.3432-0.9128 2.2031-0.9128c0.8604 0 1.6394 0.3491 2.2031 0.9128 0.4904 0.4904 0.8186 1.1443 0.8955 1.8724zm1.3631 19.898h-7.43v7.4275h7.43zm1.5291-13.551h-9.2077v8.3725h9.2077zm2.3117-0.2348h20.589v7.7875h-21.353v-7.7875zm19.061 1.5128h-18.297v4.7619h18.297zm24.277-23.324h-10.705v14.37h10.705zm-14.105 1.4986h-10.706v10.706h10.706zm-13.884 0h-10.706v10.706h10.706zm-14.217 0h-10.706v10.706h10.706zm-17.131 37.112c0.8604 0 1.6394 0.3491 2.2031 0.9127 0.5637 0.5637 0.9128 1.3433 0.9128 2.2032 0 0.8604-0.3491 1.6394-0.9128 2.2031s-1.3427 0.9128-2.2031 0.9128c-0.8599 0-1.6394-0.3491-2.2031-0.9128s-0.9128-1.3427-0.9128-2.2031c0-0.8599 0.3491-1.6395 0.9128-2.2032 0.5637-0.5636 1.3432-0.9127 2.2031-0.9127zm1.1347 1.9812c-0.2902-0.2902-0.6917-0.47-1.1347-0.47s-0.8445 0.1798-1.1347 0.47c-0.2901 0.2902-0.47 0.6916-0.47 1.1347 0 0.443 0.1799 0.8445 0.47 1.1347 0.2902 0.2901 0.6917 0.47 1.1347 0.47s0.8445-0.1799 1.1347-0.47c0.2902-0.2902 0.47-0.6917 0.47-1.1347 0-0.4431-0.1798-0.8445-0.47-1.1347zm-1.1347-8.5924c0.8604 0 1.6394 0.3491 2.2031 0.9128s0.9128 1.3432 0.9128 2.2031c0 0.8604-0.3491 1.6395-0.9128 2.2031-0.5637 0.5637-1.3427 0.9128-2.2031 0.9128-0.8599 0-1.6394-0.3491-2.2031-0.9128-0.5637-0.5636-0.9128-1.3427-0.9128-2.2031 0-0.8599 0.3491-1.6394 0.9128-2.2031s1.3432-0.9128 2.2031-0.9128zm1.1347 1.9812c-0.2902-0.2901-0.6917-0.47-1.1347-0.47s-0.8445 0.1799-1.1347 0.47c-0.2901 0.2902-0.47 0.6917-0.47 1.1347 0 0.4431 0.1799 0.8445 0.47 1.1347 0.2902 0.2902 0.6917 0.47 1.1347 0.47s0.8445-0.1798 1.1347-0.47 0.47-0.6916 0.47-1.1347c0-0.443-0.1798-0.8445-0.47-1.1347zm0-6.3265c-0.2902-0.2902-0.6917-0.47-1.1347-0.47s-0.8445 0.1798-1.1347 0.47c-0.2901 0.2901-0.47 0.6916-0.47 1.1346 0 0.4431 0.1799 0.8446 0.47 1.1347 0.2902 0.2902 0.6917 0.47 1.1347 0.47s0.8445-0.1798 1.1347-0.47c0.2902-0.2901 0.47-0.6916 0.47-1.1347 0-0.443-0.1798-0.8445-0.47-1.1346zm0-6.2873c-0.2902-0.2902-0.6917-0.47-1.1347-0.47s-0.8445 0.1798-1.1347 0.47c-0.2901 0.2901-0.47 0.6916-0.47 1.1347 0 0.443 0.1799 0.8445 0.47 1.1347 0.2902 0.2901 0.6917 0.47 1.1347 0.47s0.8445-0.1799 1.1347-0.47c0.2902-0.2902 0.47-0.6917 0.47-1.1347 0-0.4431-0.1798-0.8446-0.47-1.1347zm0-6.4717c-0.2902-0.2901-0.6917-0.47-1.1347-0.47s-0.8445 0.1799-1.1347 0.47c-0.2901 0.2902-0.47 0.6917-0.47 1.1347 0 0.4431 0.1799 0.8446 0.47 1.1347 0.2902 0.2902 0.6917 0.47 1.1347 0.47s0.8445-0.1798 1.1347-0.47c0.2902-0.2901 0.47-0.6916 0.47-1.1347 0-0.443-0.1798-0.8445-0.47-1.1347zm0-17.811c-0.2902-0.2902-0.6917-0.47-1.1347-0.47s-0.8445 0.1798-1.1347 0.47c-0.2901 0.2902-0.47 0.6916-0.47 1.1347 0 0.443 0.1799 0.8445 0.47 1.1347 0.2902 0.2901 0.6917 0.47 1.1347 0.47s0.8445-0.1799 1.1347-0.47c0.2902-0.2902 0.47-0.6917 0.47-1.1347 0-0.4431-0.1798-0.8445-0.47-1.1347zm0-6.7752c-0.2902-0.2901-0.6917-0.47-1.1347-0.47s-0.8445 0.1799-1.1347 0.47c-0.2901 0.2902-0.47 0.6917-0.47 1.1347 0 0.4431 0.1799 0.8446 0.47 1.1347 0.2902 0.2902 0.6917 0.47 1.1347 0.47s0.8445-0.1798 1.1347-0.47c0.2902-0.2901 0.47-0.6916 0.47-1.1347 0-0.443-0.1798-0.8445-0.47-1.1347zm-7.1061-4.7045v60.336h25.888c5.0541 0 9.5561-0.0604 13.973-0.5604 4.4042-0.4987 8.7533-1.4364 13.534-3.191 5.1269-1.8817 10.13-4.9503 14.103-8.9427 3.5595-3.5764 6.2918-7.8915 7.5396-12.752 0.5216-2.0323 0.7544-4.0818 0.7025-6.124-0.0519-2.049-0.3922-4.0947-1.0148-6.1125-1.3921-4.5108-3.7567-8.236-6.8409-11.248-3.353-3.2744-7.5608-5.7153-12.302-7.4149-4.4806-1.6065-9.3544-2.6036-14.297-3.1998-4.9526-0.5975-9.9744-0.7907-14.742-0.7907zm-1.5113 61.092v-62.603h28.055c4.8151 0 9.8944 0.196 14.92 0.8022 5.0347 0.6075 10.017 1.6294 14.627 3.2824 4.9405 1.7715 9.3335 4.3224 12.845 7.7515 3.2605 3.1841 5.7596 7.1204 7.2303 11.886 0.6622 2.146 1.0241 4.328 1.0798 6.52 0.0551 2.1775-0.193 4.3635-0.7494 6.5311-1.3198 5.141-4.1926 9.6881-7.9294 13.443-4.1351 4.1546-9.3325 7.3448-14.652 9.2974-4.9033 1.7996-9.3665 2.7615-13.888 3.2736-4.5083 0.5103-9.0486 0.572-14.138 0.572h-27.399zm-4.5075 4.5075v-71.618h32.562c4.8229 0 10.105 0.1985 15.42 0.8387 5.3236 0.6415 10.682 1.7296 15.648 3.5104 5.619 2.0145 10.602 4.9558 14.587 8.8818 3.7346 3.6796 6.5916 8.2204 8.2733 13.669 2.645 8.5683 1.0649 16.948-3.2587 24.069-4.6703 7.691-12.547 13.907-21.747 17.284-5.3198 1.9525-10.051 2.9834-14.796 3.526-4.7339 0.541-9.4553 0.5954-14.784 0.5954h-31.906zm47.654-215.58h-14.406v45.864h-33.032v-45.732h-14.013v45.737l-5.7523-0.0728v3e-3h-51.136v16.9h36.612v151.99h-27.924l-3.9843 18.31 51.986 4.1071v43.824h14.275v-45.273h33.098v45.142h14.013v-45.667h12.219l2.1487 6e-3c4.0554 8e-3 8.128 0.0164 12.191-0.2453 2.6185-0.1688 5.1632-0.4657 7.6875-0.901 2.5167-0.4337 5.0148-1.0065 7.5456-1.7276 2.8336-0.807 5.6135-1.7769 8.3053-2.9177 2.5958-1.1002 5.1284-2.3666 7.5685-3.808 4.3222-2.5525 8.1597-5.5858 11.579-9.0385 3.427-3.4605 6.4359-7.3414 9.0934-11.582 2.8097-4.4834 4.6816-9.7476 5.7803-15.226h3e-3c1.2443-6.2033 1.4906-12.68 0.9813-18.612-0.4888-5.6946-1.9081-10.761-4.3181-15.286-2.4102-4.5269-5.8198-8.5287-10.288-12.094-2.8054-2.2386-5.8548-4.1315-9.0574-5.7231-3.4968-1.7376-7.1756-3.1189-10.92-4.2017l-13.521-3.9093 12.772-5.9188c2.3062-1.0687 4.806-2.6633 7.1431-4.4748 2.4155-1.8722 4.6537-3.9741 6.3216-5.9641 1.7709-2.1135 3.0942-4.3844 4.0763-6.8001 0.9871-2.4271 1.6331-5.0063 2.0467-7.723 0.9325-6.123 1.1317-12.312 0.1164-18.216-1.0103-5.8765-3.2243-11.478-7.1177-16.459-3.5547-4.5478-8.0439-8.3095-13.064-11.162-5.1732-2.9392-10.911-4.9111-16.774-5.7815-4.3753-0.6496-8.8889-1.0133-13.405-1.1954-4.541-0.1834-9.0863-0.1854-13.5-0.1121l-5.3503 0.0891zm-15.162-1.5113h16.673v46.127l3.8153-0.0635c4.4474-0.0741 9.0229-0.0721 13.583 0.1121 4.5848 0.1848 9.1548 0.5521 13.564 1.2069 6.0434 0.8975 11.961 2.9319 17.299 5.9644 5.1851 2.9457 9.8259 6.8366 13.506 11.546 4.062 5.1962 6.3691 11.025 7.4189 17.132 1.0453 6.079 0.8441 12.427-0.1103 18.694-0.4304 2.8275-1.1062 5.5198-2.1414 8.0655-1.0395 2.5565-2.4409 4.9617-4.3181 7.2016-1.7324 2.0668-4.0542 4.2478-6.5578 6.1883-2.424 1.8787-5.0244 3.5363-7.4323 4.6521l-9.1115 4.2224 9.6482 2.7897c3.8331 1.1083 7.5955 2.5205 11.168 4.296 3.2993 1.6397 6.4401 3.5889 9.3289 5.8943 4.6289 3.694 8.1675 7.8522 10.678 12.567 2.5114 4.7163 3.9887 9.976 4.4949 15.871 0.5197 6.0495 0.2653 12.67-1.0105 19.03l3e-3 5e-4c-1.1302 5.6355-3.0681 11.07-5.9868 15.727-2.7205 4.3415-5.7979 8.3118-9.2999 11.848-3.5099 3.5443-7.4472 6.6567-11.88 9.2747-2.4857 1.4684-5.08 2.7646-7.7514 3.8968-2.7706 1.1742-5.6072 2.1653-8.4765 2.9826-2.5772 0.7345-5.1277 1.3188-7.7048 1.7629-2.5699 0.443-5.1677 0.7461-7.8467 0.9186-4.0657 0.2619-8.1844 0.2536-12.286 0.2453h-12.857v45.667h-17.035v-45.142h-30.075v45.273h-17.298v-43.94l-52.318-4.1335 4.6113-21.19h27.629v-148.97h-36.612l-3e-4 -19.922h52.647l9e-3 3e-3 4.2322 0.0534v-45.724h17.035v45.732h30.009v-45.864zm181.32 102.66 8.645-1.7649-4.442-21.758-8.6448 1.7649zm-9.2428-33.581 8.1708-3.3219-8.3622-20.569-8.1711 3.322zm-14.402-29.668 7.2716-4.9942-12.571-18.304-7.2716 4.9941zm-19.941-27.016 6.3205-6.1553-15.493-15.909-6.3203 6.1551zm-24.442-23.191 5.2271-7.1064-17.888-13.157-5.2268 7.1064zm-28.607-18.629 3.8658-7.9272-19.957-9.7319-3.8655 7.927zm-31.145-12.97 2.3812-8.4936-21.38-5.9941-2.3812 8.4937zm-32.238-8.9216 0.3902-8.8143-22.185-0.982-0.3901 8.8143zm-34.248-1.1596-0.3219-8.8173-22.192 0.81 0.3219 8.8176zm-34.567 4.206-1.8856-8.6156-21.69 4.7471 1.8856 8.6159zm-33.651 8.8514-3.7431-7.991-20.111 9.4204 3.7431 7.9909zm-29.49 15.314-5.2069-7.121-17.925 13.107 5.207 7.121zm-26.65 20.389-6.2424-6.2349-15.692 15.713 6.2427 6.2347zm-22.538 24.715-7.1512-5.1697-13.01 17.998 7.1512 5.1694zm-18.998 28.308-8.1371-3.4056-8.5725 20.483 8.137 3.4053zm-12.824 31.858-8.5791-2.0419-5.1407 21.599 8.5791 2.0419zm353.22 152.05 7.9559 3.8176 9.6077-20.023-7.9561-3.8176zm-17.286 27.288 7.2029 5.1002 12.834-18.126-7.2028-5.1002zm-22.515 25.022 6.2901 6.1863 15.571-15.832-6.2901-6.1863zm-27.228 20.217 5.0262 7.2517 18.252-12.65-5.0261-7.2517zm-29.954 15.233 3.6637 8.0272 20.202-9.2211-3.6637-8.0272zm-32.581 10.357 2.6167 8.4256 21.208-6.5862-2.6168-8.4259zm-30.941 2.9731 0.3609 8.8161 22.189-0.9083-0.361-8.8161zm-34.434-0.5793-0.1977 8.8218 22.202 0.4975 0.1975-8.8216zm-32.328-7.9152-2.0674 8.5794 21.591 5.2027 2.0674-8.5794zm-30.984-12.79-3.7864 7.968 20.056 9.5307 3.7864-7.9678zm-29.134-18.553-5.1732 7.1439 17.984 13.023 5.1732-7.1439zm-24.696-22.471-6.1149 6.3595 16.007 15.392 6.115-6.3595zm-20.818-26.707-7.0204 5.3422 13.447 17.671 7.0205-5.3422zm-14.871-29.255-8.0308 3.6496 9.1871 20.215 8.0307-3.6496zm-9.5367-33.861-8.5975 1.976 4.9743 21.641 8.5972-1.9762zm-4.7612-34.18-8.8022 0.5826 1.4664 22.157 8.8022-0.5826zm0.5478-34.385h-8.8183v22.202h8.8183zm195.1-210.45c65.487 0 124.78 26.394 167.7 69.066 42.92 42.673 69.466 101.62 69.466 166.74s-26.546 124.07-69.466 166.74c-42.918 42.672-102.21 69.066-167.7 69.066-65.487 0-124.78-26.394-167.7-69.066-42.92-42.673-69.466-101.62-69.466-166.74s26.546-124.07 69.466-166.74c42.918-42.672 102.21-69.066 167.7-69.066zm173.22 63.584c-44.329-44.075-105.57-71.336-173.22-71.336s-128.89 27.261-173.22 71.336c-44.328 44.074-71.746 104.96-71.746 172.22 0 67.257 27.418 128.15 71.746 172.22 44.329 44.075 105.57 71.336 173.22 71.336s128.89-27.261 173.22-71.336c44.328-44.074 71.746-104.96 71.746-172.22s-27.418-128.15-71.746-172.22z" fill="rgba(255, 255, 255, 1)" fill-rule="evenodd"/>
</svg>
